<?xml version="1.0" encoding="UTF-8"?>
<svg xmlns="http://www.w3.org/2000/svg" viewBox="0 0 918.0 653.7" preserveAspectRatio="xMidYMid meet">
  <defs>
    <linearGradient id="bgpEdgeFade" x1="0%" y1="0%" x2="100%" y2="0%">
      <stop offset="0%" stop-color="white" stop-opacity="0.55"/>
      <stop offset="14%" stop-color="white" stop-opacity="1"/>
      <stop offset="86%" stop-color="white" stop-opacity="1"/>
      <stop offset="100%" stop-color="white" stop-opacity="0.55"/>
    </linearGradient>
    <mask id="bgpFadeMask" maskUnits="userSpaceOnUse" x="0" y="467.0" width="918.0" height="186.7">
      <rect x="0" y="467.0" width="918.0" height="186.7" fill="url(#bgpEdgeFade)"/>
    </mask>
  </defs>
  <g transform="translate(70.02 0)">
<metadata>
Created by potrace 1.16, written by Peter Selinger 2001-2019
</metadata>
<g transform="translate(0.000000,467.000000) scale(0.100000,-0.100000)"
fill="#B8923A" stroke="none">
<path d="M3063 4591 c-163 -86 -211 -147 -263 -336 -6 -22 -14 -47 -17 -55 -3
-8 9 -2 27 13 18 16 54 39 80 52 75 38 148 102 180 158 46 80 91 207 74 207
-5 0 -42 -18 -81 -39z m-39 -103 c-7 -12 -143 -180 -191 -237 -12 -14 -22 -22
-23 -17 0 10 84 117 164 209 49 56 65 70 50 45z"/>
<path d="M4636 4603 c36 -152 113 -259 234 -330 105 -61 131 -73 122 -55 -6 9
-13 37 -17 62 -16 100 -80 195 -173 259 -53 36 -154 91 -167 91 -3 0 -2 -12 1
-27z m211 -210 c91 -109 138 -173 117 -160 -12 7 -193 229 -208 255 -19 32 8
3 91 -95z"/>
<path d="M3405 4503 c-55 -7 -139 -35 -181 -59 -22 -13 -67 -51 -99 -83 -37
-37 -76 -66 -104 -77 -162 -61 -331 -156 -494 -276 -37 -28 -71 -48 -74 -44
-3 3 23 34 58 68 36 35 76 79 91 98 42 56 68 147 68 242 l0 82 -66 -64 c-44
-44 -77 -88 -101 -137 -31 -63 -36 -83 -39 -163 -2 -50 -9 -101 -16 -113 -6
-12 -9 -23 -7 -24 2 -1 -25 -27 -61 -59 -36 -32 -96 -87 -134 -123 -38 -36
-66 -58 -62 -48 3 10 6 23 6 28 0 5 31 43 69 84 38 41 81 99 95 129 32 68 51
187 41 263 l-7 58 -56 -60 c-134 -146 -164 -221 -161 -400 l3 -126 -62 -72
c-90 -106 -142 -178 -216 -301 l-66 -109 0 56 c0 31 -4 67 -9 81 -7 18 -6 28
5 36 31 27 10 80 -32 80 -46 0 -60 -66 -17 -85 54 -23 42 -181 -27 -345 -102
-247 -152 -479 -173 -802 -2 -32 -1 -58 2 -58 3 0 7 -55 9 -123 4 -129 30
-309 61 -417 10 -36 27 -94 37 -130 26 -93 107 -290 154 -376 22 -41 37 -74
34 -74 -4 0 2 -10 13 -22 11 -13 55 -76 97 -140 42 -65 81 -117 87 -115 6 1
22 -14 36 -33 l25 -35 -31 35 c-17 19 -31 29 -31 22 0 -6 42 -54 93 -106 91
-93 92 -93 44 -69 -26 13 -74 30 -107 36 -34 7 -69 22 -83 35 -13 12 -31 22
-39 22 -24 0 -48 -28 -47 -53 1 -18 2 -19 6 -4 5 18 5 18 19 0 18 -24 17 -34
-3 -26 -11 4 -14 3 -9 -5 11 -19 53 -14 73 8 18 18 22 18 86 5 103 -21 149
-47 252 -138 88 -79 216 -177 230 -177 3 0 3 5 -1 12 -4 7 -3 8 5 4 6 -4 9
-11 6 -16 -8 -13 82 -63 96 -54 8 4 9 3 5 -4 -4 -7 -1 -12 9 -12 8 0 18 -7 22
-16 5 -13 7 -13 14 -2 7 10 9 10 9 -2 0 -9 34 -33 85 -58 47 -23 85 -38 85
-32 0 5 7 7 16 3 11 -4 12 -8 4 -13 -7 -4 0 -12 19 -19 16 -7 35 -10 42 -5 7
4 10 3 6 -3 -8 -13 20 -26 35 -16 7 3 8 1 4 -5 -11 -18 120 -54 214 -58 l85
-4 -95 30 c-84 27 -101 37 -141 80 -40 42 -49 59 -63 124 -25 108 -69 189
-145 266 -60 60 -174 140 -199 140 -7 0 -7 -10 -1 -27 4 -16 22 -75 39 -133
44 -151 96 -222 218 -296 40 -24 75 -44 77 -44 2 0 -26 39 -62 88 -73 96 -142
200 -167 253 l-17 34 22 -25 c12 -14 26 -24 31 -22 5 1 7 -2 3 -7 -6 -11 42
-91 55 -91 5 0 11 6 14 13 3 6 3 2 0 -11 -3 -14 2 -32 16 -50 11 -15 58 -77
104 -138 l83 -111 -86 34 c-47 19 -130 58 -185 86 -82 42 -103 57 -127 95 -39
61 -54 111 -40 125 15 15 14 60 -1 75 -19 19 -56 14 -68 -8 -15 -28 -3 -59 26
-70 13 -5 24 -17 24 -25 0 -9 11 -38 25 -65 14 -28 23 -50 20 -50 -11 0 -151
98 -235 165 -169 134 -202 177 -220 288 -7 45 -5 54 11 70 28 26 25 65 -6 79
-21 9 -28 8 -45 -7 -25 -23 -26 -50 0 -72 11 -10 20 -29 20 -44 0 -14 7 -48
15 -75 8 -27 15 -51 15 -53 0 -6 -93 100 -148 168 -29 36 -84 115 -123 175
l-69 109 -1 86 c-1 75 -2 82 -11 51 -5 -19 -8 -52 -5 -72 3 -21 3 -38 1 -38
-16 0 -143 298 -178 418 -27 92 -28 93 -12 169 17 86 15 109 -4 36 -17 -68
-20 -76 -24 -72 -11 10 -46 216 -56 328 -16 163 -11 207 31 276 26 43 39 55
59 55 30 0 44 9 52 31 8 20 -17 59 -38 59 -24 0 -53 -36 -47 -60 4 -13 -2 -29
-14 -43 -12 -12 -28 -35 -37 -52 -17 -29 -17 -27 -11 80 5 116 21 218 56 375
20 86 25 99 62 132 29 28 62 44 121 63 138 42 245 133 312 268 l35 68 -38 -7
c-122 -21 -255 -91 -313 -164 -27 -35 -90 -150 -90 -166 0 -3 27 19 60 49 57
53 148 122 215 162 45 28 23 8 -115 -103 -69 -55 -144 -117 -167 -137 -24 -20
-43 -32 -43 -26 0 20 69 197 113 291 41 88 48 97 99 128 39 23 66 32 99 32
119 0 241 61 353 175 l69 70 -82 3 c-157 5 -268 -44 -363 -162 -26 -33 -46
-61 -44 -63 2 -2 33 15 70 37 64 39 246 123 252 117 2 -2 -47 -29 -109 -60
-61 -31 -150 -79 -196 -107 -46 -27 -85 -50 -87 -50 -17 0 183 296 227 336 42
39 110 55 192 46 129 -13 221 13 348 99 l63 43 -34 15 c-24 10 -69 15 -145 16
-99 0 -116 -3 -165 -26 -52 -25 -146 -97 -137 -105 2 -2 24 3 48 11 59 21 184
52 239 59 25 4 -38 -18 -140 -47 -102 -29 -196 -59 -208 -66 -53 -29 -29 5 79
112 159 157 174 167 245 169 33 1 93 -6 134 -16 53 -13 93 -16 139 -11 59 5
181 46 241 79 l24 14 -39 16 c-117 49 -240 61 -325 31 -37 -13 -140 -72 -140
-80 0 -1 33 3 73 10 101 18 216 25 223 14 3 -5 -17 -9 -45 -9 -45 0 -226 -21
-306 -36 l-30 -6 30 26 c90 77 274 191 458 284 l92 46 141 6 c137 5 142 6 215
42 43 21 108 66 152 105 l76 68 -37 7 c-39 7 -126 8 -177 1z m-15 -87 c0 -7
-291 -119 -296 -114 -6 6 72 41 191 84 90 33 105 37 105 30z m-799 -158 c-45
-114 -111 -250 -111 -227 0 7 76 182 95 219 18 35 28 40 16 8z m-307 -265
c-33 -92 -91 -223 -98 -223 -6 0 1 19 76 208 47 119 64 130 22 15z m-48 -3201
c-4 -3 -11 0 -16 8 -15 24 -11 33 6 15 9 -9 13 -19 10 -23z m-236 -176 c0 -3
-4 -8 -10 -11 -5 -3 -10 -1 -10 4 0 6 5 11 10 11 6 0 10 -2 10 -4z m889 -306
l23 -35 -26 30 c-14 17 -26 34 -26 39 0 11 0 11 29 -34z"/>
<path d="M4194 4502 l-31 -7 73 -66 c123 -111 227 -151 387 -148 l102 1 125
-60 c94 -45 121 -61 107 -67 -11 -5 -43 4 -90 26 -66 31 -80 34 -172 34 -109
0 -146 -12 -248 -77 -55 -35 -51 -44 25 -54 24 -4 48 -10 53 -14 6 -4 57 -7
115 -7 99 2 109 4 183 39 56 27 93 38 132 39 51 2 58 -1 182 -84 70 -47 142
-97 158 -111 30 -26 30 -26 5 -21 -57 11 -268 35 -311 35 -27 0 -51 5 -54 10
-8 12 119 4 234 -15 l74 -12 -24 20 c-13 11 -49 32 -79 46 -49 23 -67 26 -160
26 -93 -1 -113 -4 -174 -29 l-68 -29 38 -19 c21 -10 52 -22 68 -28 17 -5 56
-18 86 -29 69 -25 132 -26 240 -1 131 29 153 23 264 -75 88 -79 199 -196 191
-203 -2 -2 -16 3 -32 11 -15 8 -106 36 -200 63 -95 26 -171 49 -169 51 6 7
201 -39 265 -62 l64 -23 -39 39 c-22 22 -68 54 -104 72 -60 30 -72 32 -165 32
-55 0 -120 -6 -145 -14 l-45 -13 30 -25 c41 -33 188 -103 251 -118 28 -7 64
-11 80 -9 79 10 161 6 197 -10 44 -19 144 -141 225 -273 54 -90 64 -117 35
-91 -29 24 -139 88 -268 155 -66 34 -117 63 -113 63 8 0 153 -62 204 -88 23
-12 62 -37 87 -56 26 -20 47 -33 47 -28 -1 16 -108 138 -148 169 -62 47 -155
73 -264 73 l-89 0 28 -26 c15 -15 27 -30 26 -34 -1 -4 15 -22 35 -41 36 -33
36 -33 12 -3 -14 17 -3 8 24 -20 27 -28 45 -44 41 -36 -5 8 3 3 18 -12 14 -15
38 -30 54 -34 15 -4 33 -9 38 -13 6 -3 15 -6 20 -8 6 -1 21 -5 35 -8 14 -3 52
-10 85 -16 35 -6 82 -23 112 -41 46 -28 56 -40 92 -117 48 -104 95 -222 109
-275 l11 -39 -27 25 c-67 61 -174 150 -249 208 -82 62 -109 89 -55 55 77 -50
160 -113 217 -167 l64 -59 -26 59 c-66 155 -197 252 -387 288 l-39 7 24 -44
c48 -85 54 -94 64 -101 6 -4 10 -11 10 -15 1 -9 109 -117 111 -112 1 2 23 -10
50 -28 27 -17 75 -38 106 -46 35 -9 74 -29 101 -50 40 -33 45 -43 65 -124 32
-129 51 -253 57 -383 6 -111 6 -114 -11 -85 -9 17 -25 40 -36 52 -11 12 -17
26 -13 32 10 17 -4 50 -25 61 -23 12 -47 4 -61 -21 -8 -15 -5 -24 16 -45 15
-15 32 -23 43 -20 18 6 56 -46 82 -112 21 -55 4 -269 -37 -466 l-16 -79 -23
69 c-13 40 -19 75 -14 84 11 22 -5 57 -31 65 -17 6 -27 2 -41 -15 -10 -12 -18
-25 -18 -29 0 -18 29 -44 51 -45 21 -1 26 -9 41 -66 24 -92 23 -106 -21 -240
-33 -99 -152 -370 -163 -370 -2 0 -2 21 0 47 2 27 -1 59 -7 73 -8 20 -10 7
-10 -61 -1 -85 -2 -87 -52 -170 -61 -102 -136 -201 -223 -294 l-66 -70 14 40
c19 58 27 105 17 105 -4 0 -14 -26 -21 -57 -19 -88 -42 -123 -127 -199 -102
-91 -307 -244 -327 -244 -13 0 65 136 83 148 37 22 22 82 -20 82 -41 0 -63
-54 -34 -84 14 -13 12 -22 -16 -81 -17 -37 -44 -75 -62 -89 -41 -31 -200 -110
-292 -145 l-72 -28 106 142 c58 77 130 175 159 216 28 40 52 70 52 65 0 -17
-102 -176 -170 -265 -38 -50 -67 -91 -65 -91 2 0 38 20 79 45 135 82 197 175
240 357 14 56 24 104 22 105 -9 9 -154 -93 -207 -148 -75 -75 -117 -152 -144
-267 -14 -58 -25 -81 -60 -120 -39 -44 -53 -51 -137 -76 -51 -15 -97 -29 -103
-31 -5 -2 22 -4 60 -4 72 -1 143 11 154 26 3 4 19 9 35 11 51 6 359 148 368
170 1 5 30 23 63 40 82 41 180 112 305 221 118 103 158 125 256 146 65 13 70
13 89 -5 39 -37 85 -20 85 30 0 53 -51 68 -88 25 -13 -15 -33 -25 -49 -25 -16
0 -59 -11 -97 -25 l-70 -24 68 68 c45 45 66 73 61 82 -5 7 -4 10 3 5 10 -6 60
59 180 234 37 55 68 86 114 117 80 54 116 67 134 52 10 -8 14 -8 14 0 0 6 5
11 11 11 6 0 9 -7 5 -15 -3 -9 0 -15 8 -15 19 0 46 33 46 57 0 23 -29 53 -52
53 -16 0 -48 -31 -48 -47 0 -5 -19 -19 -42 -29 -23 -10 -64 -36 -91 -58 l-49
-38 40 78 c46 89 118 263 152 369 28 86 58 133 121 197 44 44 52 48 82 43 40
-8 67 13 67 50 0 29 -34 55 -61 48 -22 -6 -41 -36 -37 -56 2 -7 -17 -30 -41
-52 -24 -22 -57 -60 -73 -84 -29 -47 -34 -49 -19 -8 18 46 51 273 60 404 8
122 11 137 46 212 39 83 66 118 84 107 15 -10 49 11 56 34 7 23 -8 55 -31 64
-9 4 -28 -1 -42 -10 -20 -13 -23 -22 -19 -49 4 -24 1 -38 -10 -47 -9 -7 -31
-44 -48 -82 l-32 -68 -6 113 c-11 234 -71 478 -183 744 -34 82 -37 99 -38 187
-1 93 0 97 27 118 43 34 32 90 -20 90 -21 0 -43 -25 -43 -49 0 -5 7 -16 15
-24 11 -11 12 -22 5 -48 -6 -19 -10 -56 -10 -84 l0 -50 -36 64 c-114 205 -298
428 -489 592 -46 39 -87 79 -91 88 -4 9 -10 62 -14 117 -9 134 -41 204 -139
306 l-70 73 -1 -79 c0 -52 7 -103 21 -149 19 -64 29 -79 105 -158 82 -86 111
-131 57 -90 -153 117 -294 201 -452 271 -99 44 -135 66 -178 108 -68 66 -115
96 -191 121 -63 22 -224 35 -278 23z m346 -133 c69 -27 135 -55 145 -64 23
-16 -123 36 -235 85 -145 63 -98 52 90 -21z m715 -229 c31 -67 54 -124 52
-126 -5 -5 -102 201 -112 236 -14 48 5 12 60 -110z m-377 21 c8 -4 -31 -11
-95 -15 -59 -3 -128 -8 -153 -11 -40 -4 -42 -4 -15 5 17 6 71 14 120 19 126
12 128 12 143 2z m922 -3551 c13 -8 13 -10 -2 -10 -9 0 -20 5 -23 10 -8 13 5
13 25 0z"/>
<path d="M5388 4222 c-8 -88 8 -198 38 -259 14 -29 56 -87 95 -129 38 -42 72
-87 75 -100 3 -13 10 -24 16 -24 5 0 6 5 2 12 -4 6 -6 60 -5 120 3 160 -32
245 -161 383 l-55 59 -5 -62z m122 -217 c52 -129 90 -235 85 -235 -12 0 -89
192 -120 300 -14 46 3 16 35 -65z"/>
<path d="M3030 4219 c-37 -6 -140 -44 -140 -52 0 -1 37 -3 83 -4 90 -2 213
-20 237 -34 11 -7 8 -8 -10 -5 -107 21 -344 36 -356 23 -4 -4 3 -7 15 -7 12 0
41 -10 63 -21 79 -40 149 -59 222 -59 83 0 238 29 233 45 -6 17 -129 85 -182
99 -70 20 -113 24 -165 15z"/>
<path d="M2808 4143 c7 -3 16 -2 19 1 4 3 -2 6 -13 5 -11 0 -14 -3 -6 -6z"/>
<path d="M3681 4049 c-202 -21 -413 -85 -607 -182 -564 -283 -923 -784 -1024
-1429 -14 -90 -14 -366 0 -475 44 -337 192 -679 405 -936 31 -37 61 -65 66
-61 5 3 8 0 7 -8 -2 -7 3 -12 10 -10 8 1 11 -2 7 -9 -23 -37 445 -390 496
-374 9 3 20 1 24 -4 4 -7 -1 -9 -12 -5 -10 3 4 -7 30 -21 27 -15 56 -24 64
-21 7 3 12 2 9 -3 -13 -20 323 -127 371 -118 12 2 20 1 18 -4 -10 -16 212 -39
375 -39 593 1 1173 316 1512 822 435 649 413 1509 -56 2136 -97 129 -182 220
-291 311 -400 334 -889 483 -1404 430z m474 -75 c633 -94 1169 -522 1408
-1124 93 -235 137 -532 117 -784 -59 -732 -551 -1350 -1250 -1574 -312 -100
-639 -109 -977 -27 -254 61 -510 194 -729 378 -322 270 -544 671 -609 1097
-19 123 -19 387 0 512 149 991 1057 1669 2040 1522z m-1425 -3196 c0 -6 -6 -5
-15 2 -8 7 -15 14 -15 16 0 2 7 1 15 -2 8 -4 15 -11 15 -16z m955 -398 c3 -5
1 -10 -4 -10 -6 0 -11 5 -11 10 0 6 2 10 4 10 3 0 8 -4 11 -10z"/>
<path d="M3655 3935 c-397 -52 -804 -269 -1070 -572 -468 -535 -576 -1297
-270 -1915 102 -207 209 -352 369 -505 269 -258 590 -413 968 -469 152 -22
449 -15 588 15 223 48 433 138 630 269 142 94 352 299 452 442 247 350 361
809 303 1220 -55 388 -221 731 -484 998 -397 403 -931 589 -1486 517z m420
-25 c263 -31 496 -110 713 -244 410 -254 688 -653 788 -1131 26 -127 43 -325
28 -325 -22 1 -33 19 -36 60 -2 38 -7 46 -25 48 -16 2 -23 -2 -23 -12 0 -9 -5
-16 -11 -16 -6 0 -8 -8 -5 -17 3 -10 1 -25 -4 -33 -7 -11 -10 -2 -10 33 0 26
-4 47 -10 47 -5 0 -10 -20 -10 -45 0 -41 -3 -48 -32 -63 -66 -36 -68 -40 -68
-173 0 -92 3 -120 13 -116 8 2 12 29 13 82 1 54 6 81 14 83 7 3 10 0 6 -6 -4
-6 31 -14 97 -20 l102 -10 -102 3 -103 3 0 -67 0 -67 32 -2 c45 -4 67 -26 50
-52 -25 -40 -11 -192 20 -211 7 -4 7 -12 1 -24 -16 -28 -45 57 -51 147 l-5 77
-56 0 -56 -1 3 -53 c3 -43 -6 -80 -47 -201 -28 -81 -49 -150 -46 -152 8 -8 9
-6 59 132 31 86 49 153 53 198 6 65 6 67 20 41 10 -20 11 -28 2 -34 -8 -4 -10
-20 -6 -43 3 -20 2 -34 -3 -31 -4 3 -10 -2 -14 -10 -3 -8 -1 -15 4 -15 6 0 10
-5 10 -10 0 -6 -3 -9 -7 -8 -5 2 -10 -1 -12 -7 -3 -5 -11 -21 -18 -35 -13 -25
-13 -25 35 -28 65 -3 112 -12 112 -20 0 -4 -37 -6 -83 -4 -71 3 -84 1 -84 -12
0 -13 14 -16 79 -16 45 0 78 -4 78 -10 0 -6 -37 -11 -87 -11 -49 -1 -77 -4
-63 -7 23 -4 24 -5 5 -12 -16 -6 -11 -9 25 -16 l45 -8 -50 -7 -50 -6 60 -3 60
-2 -50 -13 c-49 -13 -49 -13 -15 -16 34 -2 34 -2 -10 -9 l-45 -7 51 -1 c28 -1
56 3 63 11 7 6 0 -14 -15 -45 -30 -61 -32 -62 -101 -49 -24 5 -43 5 -43 1 0
-12 28 -20 66 -20 19 0 34 -4 34 -9 0 -10 -25 -32 -31 -27 -2 2 -19 6 -36 9
l-33 7 0 -75 c0 -40 -4 -76 -9 -79 -6 -4 -11 65 -13 165 l-3 171 -32 29 c-25
22 -33 37 -33 64 0 39 -21 48 -39 18 -8 -14 -10 -15 -11 -3 0 13 -2 13 -9 1
-5 -8 -7 -29 -4 -47 5 -28 2 -33 -18 -36 -16 -2 -25 -11 -27 -26 -2 -12 -7
-20 -12 -17 -5 3 -11 1 -15 -5 -3 -5 1 -10 9 -10 20 0 21 -26 1 -34 -37 -14
-8 -25 76 -28 l91 -3 -4 42 c-2 23 0 39 4 35 11 -12 13 -341 1 -353 -16 -16
-114 -22 -160 -10 l-43 12 0 176 0 176 33 31 c33 30 58 106 36 106 -5 0 -9
-14 -9 -30 0 -22 -9 -39 -35 -61 l-35 -31 0 -189 c0 -177 1 -189 20 -199 23
-12 153 -15 172 -4 7 4 4 -3 -7 -16 -19 -21 -25 -22 -106 -17 -47 3 -102 12
-123 21 -40 17 -51 6 -11 -12 21 -10 25 -19 25 -52 0 -60 -26 -73 -142 -70
-51 1 -101 2 -111 1 -10 0 -15 5 -11 11 5 8 0 9 -14 5 -12 -4 -31 -10 -42 -13
-12 -4 -20 -2 -20 5 0 6 8 11 18 11 9 0 24 5 32 11 12 9 11 10 -8 6 -12 -3
-20 -1 -17 4 3 4 21 11 40 15 25 4 35 12 35 25 0 10 9 27 20 37 12 11 24 37
27 58 8 48 15 54 79 54 55 0 79 -16 68 -45 -6 -14 -2 -16 22 -13 l29 3 5 186
c4 137 9 190 19 202 14 18 15 18 -156 22 -62 1 -84 14 -27 16 38 1 38 2 9 9
-16 4 -23 8 -15 9 20 1 43 78 26 85 -6 2 -3 5 6 5 14 1 48 46 48 65 0 3 -42
-12 -92 -33 -51 -21 -133 -53 -183 -71 -104 -38 -127 -55 -118 -88 8 -32 27
-22 31 16 3 25 9 33 38 42 71 24 173 -13 202 -73 15 -31 4 -60 -29 -78 -27
-14 -126 -13 -164 1 -25 9 -31 8 -42 -6 -7 -10 -10 -21 -6 -25 5 -4 78 -14
163 -23 199 -22 200 -22 200 -85 0 -74 -24 -82 -177 -55 l-32 6 -3 -53 c-3
-50 -5 -53 -38 -64 -29 -10 -59 -9 -165 7 -71 10 -157 17 -190 14 -33 -2 -51
-1 -40 4 15 5 9 9 -30 19 -42 10 -57 9 -94 -4 -24 -8 -46 -13 -48 -11 -2 2 13
9 34 16 21 7 43 17 48 23 7 7 4 8 -10 2 -71 -26 -159 -54 -162 -51 -2 2 24 14
57 26 92 34 65 35 -33 0 -47 -16 -89 -30 -94 -30 -10 1 44 25 112 51 36 14 41
17 17 13 -18 -3 -60 -17 -92 -30 -62 -25 -86 -31 -60 -14 23 15 -3 12 -46 -6
-22 -9 -34 -12 -29 -6 6 5 32 18 59 28 68 25 43 29 -29 4 -32 -11 -60 -18 -62
-16 -7 6 126 48 135 42 4 -2 14 -1 22 5 27 16 -35 10 -102 -11 -86 -27 -97
-24 -18 6 42 15 52 22 30 18 -19 -3 -73 -21 -119 -40 -47 -18 -86 -32 -88 -31
-4 5 163 77 179 77 7 0 21 7 31 15 11 7 24 12 31 9 6 -2 38 5 70 16 70 24 77
24 51 4 l-20 -16 20 4 c14 2 21 12 23 35 4 39 13 47 82 66 43 13 59 23 74 47
10 17 16 34 13 36 -3 3 -173 -60 -378 -140 -206 -79 -439 -169 -519 -199 -80
-31 -153 -59 -162 -62 -35 -14 -17 -22 61 -29 44 -3 342 -35 663 -71 320 -35
688 -76 817 -89 128 -14 235 -27 238 -29 6 -6 -136 -96 -237 -150 -47 -25
-127 -62 -178 -82 -97 -37 -302 -89 -384 -98 l-48 -5 -2 72 -2 71 -3 -73 -4
-72 -32 -1 c-182 -8 -311 0 -457 27 l-90 16 -2 122 -2 121 -3 -117 c-2 -66 -8
-118 -13 -118 -28 0 -235 78 -309 116 -141 73 -173 91 -180 100 -3 5 -27 20
-53 33 -26 13 -54 32 -64 42 -16 18 -14 18 67 15 94 -4 197 -27 248 -57 38
-22 55 -17 25 7 -13 11 -14 14 -4 11 10 -3 16 2 17 13 1 15 -8 20 -55 25 -100
11 -94 4 -90 111 l3 95 -40 10 c-56 14 -63 17 -40 18 11 0 37 -6 58 -13 36
-13 42 -12 169 39 149 60 153 51 -36 80 -54 9 -101 14 -103 11 -4 -4 162 -36
190 -36 9 0 17 -4 17 -8 0 -10 -113 3 -188 22 -29 7 -49 9 -44 4 5 -5 48 -16
96 -25 48 -9 85 -17 83 -20 -4 -3 -43 2 -177 22 l-35 5 40 -14 c22 -8 56 -15
75 -15 19 -1 42 -6 50 -12 11 -7 1 -8 -35 -5 -44 5 -46 5 -17 -4 51 -17 38
-23 -35 -17 -48 4 -60 3 -43 -3 19 -7 13 -8 -24 -4 -27 3 -56 8 -65 11 -14 4
-14 3 -1 -7 12 -10 10 -10 -10 -5 -54 15 -170 32 -170 25 0 -4 25 -11 57 -15
31 -4 65 -10 77 -15 12 -4 41 -13 64 -20 73 -19 42 -20 -36 -1 -39 10 -89 16
-109 14 -28 -2 -34 -1 -23 7 13 8 13 10 -2 10 -10 0 -18 -4 -18 -10 0 -5 -5
-10 -11 -10 -5 0 -8 4 -4 9 5 8 -63 4 -73 -5 -2 -1 20 -7 50 -13 l53 -10 -70
5 c-80 6 -83 -1 -4 -15 l54 -10 -48 3 c-81 6 -38 -10 63 -23 105 -14 175 -29
203 -43 34 -17 11 -18 -63 -3 -41 9 -114 17 -164 20 -53 2 -74 1 -51 -3 l40
-7 -30 -9 c-28 -7 -34 -3 -105 72 -41 44 -100 115 -131 158 -61 86 -98 143
-84 131 9 -8 70 81 61 90 -2 3 -14 -14 -26 -37 -12 -23 -24 -39 -27 -36 -3 3
9 30 26 62 18 31 30 58 27 61 -3 3 -10 -5 -15 -19 -5 -14 -16 -31 -24 -39 -7
-8 -18 -28 -24 -44 l-10 -30 -25 45 c-41 71 -115 252 -142 348 -41 143 -57
253 -59 404 l-2 143 131 16 c71 9 137 19 145 22 29 11 -66 7 -168 -9 -58 -8
-107 -13 -110 -10 -7 6 41 15 175 30 109 12 133 19 118 33 -7 7 -246 -14 -273
-24 -14 -6 -15 2 -9 66 30 328 198 696 438 961 365 402 916 611 1453 550z
m1429 -1706 c-21 -7 -40 -11 -42 -9 -8 7 53 33 66 27 8 -3 -1 -10 -24 -18z
m-40 -45 c-3 -5 -10 -7 -15 -4 -5 4 -9 -1 -9 -9 0 -9 -5 -16 -12 -16 -6 0 -9
-3 -5 -6 3 -3 48 -9 99 -14 l93 -7 -112 -2 c-103 -1 -132 6 -103 24 6 3 10 12
10 18 0 7 -4 6 -10 -3 -5 -8 -10 -10 -10 -4 0 6 10 19 22 30 19 15 20 16 9 2
-7 -10 -9 -18 -3 -18 15 0 33 26 24 36 -4 4 1 2 10 -5 10 -7 15 -17 12 -22z
m103 -25 c-3 -3 -12 -4 -19 -1 -8 3 -5 6 6 6 11 1 17 -2 13 -5z m43 -4 c0 -5
-7 -7 -15 -4 -8 4 -15 8 -15 10 0 2 7 4 15 4 8 0 15 -4 15 -10z m-183 -122
c-3 -7 -5 -2 -5 12 0 14 2 19 5 13 2 -7 2 -19 0 -25z m130 -80 c-3 -7 -5 -2
-5 12 0 14 2 19 5 13 2 -7 2 -19 0 -25z m30 0 c-3 -8 -6 -5 -6 6 -1 11 2 17 5
13 3 -3 4 -12 1 -19z m-67 -206 c-9 -13 -10 -2 -6 47 3 35 7 89 8 120 1 31 4
10 5 -47 2 -63 -1 -109 -7 -120z m36 102 c-3 -48 -8 -90 -13 -95 -4 -4 -5 33
-1 84 7 102 6 97 13 97 3 0 3 -39 1 -86z m21 44 c-3 -8 -6 -5 -6 6 -1 11 2 17
5 13 3 -3 4 -12 1 -19z m-754 -265 c-7 -2 -19 -2 -25 0 -7 3 -2 5 12 5 14 0
19 -2 13 -5z m347 -87 c0 -3 -4 -8 -10 -11 -5 -3 -10 -1 -10 4 0 6 5 11 10 11
6 0 10 -2 10 -4z m-230 -26 c-8 -5 -19 -10 -25 -10 -5 0 -3 5 5 10 8 5 20 10
25 10 6 0 3 -5 -5 -10z m5 -20 c-3 -5 -12 -10 -18 -10 -7 0 -6 4 3 10 19 12
23 12 15 0z m212 -62 c-3 -7 -5 -2 -5 12 0 14 2 19 5 13 2 -7 2 -19 0 -25z
m-1257 -131 c20 1 22 0 7 -8 -9 -6 -22 -7 -28 -4 -5 4 -15 2 -22 -3 -15 -11
-109 -43 -114 -38 -2 2 24 13 58 26 47 17 58 25 48 32 -10 7 -9 8 6 2 11 -4
31 -7 45 -7z m-71 -1 c-8 -8 -113 -45 -117 -42 -2 2 21 13 50 25 51 19 76 26
67 17z m-164 -66 c-22 -10 -44 -18 -50 -18 -5 0 8 8 30 19 22 10 45 18 50 18
6 0 -8 -9 -30 -19z m45 -5 c-14 -8 -29 -14 -35 -14 -5 0 1 6 15 14 14 8 30 14
35 14 6 0 -1 -6 -15 -14z m-60 -25 c-8 -5 -19 -10 -25 -10 -5 0 -3 5 5 10 8 5
20 10 25 10 6 0 3 -5 -5 -10z m520 -20 c-12 -8 -12 -10 5 -11 l20 0 -20 -9
c-27 -12 -43 -12 -25 0 12 8 12 10 -5 11 l-20 0 20 9 c27 12 43 12 25 0z
m-550 -20 c-8 -5 -19 -10 -25 -10 -5 0 -3 5 5 10 8 5 20 10 25 10 6 0 3 -5 -5
-10z m227 -25 c92 -14 205 -33 250 -43 67 -15 83 -16 87 -5 6 14 97 17 176 5
38 -6 44 -11 42 -27 -5 -27 -20 -35 -64 -35 -26 0 -38 -5 -38 -14 0 -22 -27
-27 -107 -20 -77 7 -93 17 -43 28 33 6 41 32 13 40 -10 2 -38 7 -63 11 -25 3
-58 9 -74 12 -18 3 -26 1 -22 -5 3 -5 37 -13 74 -17 38 -4 75 -11 83 -16 17
-12 -183 -6 -356 11 -154 14 -165 17 -165 38 0 16 26 62 35 62 2 0 79 -11 172
-25z m-302 -5 c-22 -10 -44 -18 -50 -18 -5 0 8 8 30 19 22 10 45 18 50 18 6 0
-8 -9 -30 -19z m1015 -75 c0 -3 -49 -30 -110 -60 -60 -30 -110 -53 -110 -50 0
4 206 112 218 114 1 1 2 -1 2 -4z m520 0 c0 -2 -13 -11 -30 -20 -38 -19 -40
-11 -2 9 31 17 32 18 32 11z m-2247 -12 c-7 -2 -19 -2 -25 0 -7 3 -2 5 12 5
14 0 19 -2 13 -5z m2257 -13 c-14 -11 -29 -20 -35 -20 -5 0 4 9 20 20 38 25
48 25 15 0z m-480 -20 c-8 -5 -19 -10 -25 -10 -5 0 -3 5 5 10 8 5 20 10 25 10
6 0 3 -5 -5 -10z m-110 -15 c0 -6 -97 -55 -107 -55 -4 1 17 14 47 30 61 32 60
32 60 25z m-1715 -35 c-34 -6 -28 -7 35 -9 67 -1 157 -17 148 -26 -2 -2 -47
-5 -101 -6 -94 -3 -99 -2 -125 24 l-27 27 55 -1 c54 -2 54 -2 15 -9z m2022
-56 c-3 -3 -12 -4 -19 -1 -8 3 -5 6 6 6 11 1 17 -2 13 -5z m-1977 -14 c0 -5
-4 -10 -9 -10 -6 0 -13 5 -16 10 -3 6 1 10 9 10 9 0 16 -4 16 -10z"/>
<path d="M3875 3675 l-40 -13 45 -2 c35 -1 40 -3 25 -10 -17 -7 -16 -9 10 -9
22 -1 26 -4 16 -10 -11 -7 -6 -12 20 -19 l34 -10 -30 -2 c-27 -2 -25 -3 15
-13 43 -11 44 -11 15 -16 l-30 -4 40 -13 c38 -12 39 -13 10 -14 -29 -1 -29 -1
10 -16 56 -21 167 -30 191 -15 12 7 14 11 4 9 -25 -4 -71 12 -65 22 3 6 -3 10
-14 10 -12 0 -21 4 -21 9 0 5 -10 12 -22 15 -13 2 -2 4 24 3 l47 -2 -20 21
c-11 12 -42 29 -67 39 -26 9 -60 23 -77 30 -50 21 -78 24 -120 10z"/>
<path d="M3680 3620 c-65 -36 -93 -66 -126 -139 -28 -63 -29 -68 -9 -51 8 7
15 20 15 29 0 16 49 103 50 88 0 -5 12 1 26 12 30 23 49 28 38 9 -5 -8 -1 -8
12 2 29 22 30 24 11 17 -11 -4 -16 -3 -12 3 3 6 2 10 -4 10 -5 0 -13 -4 -16
-10 -3 -5 -11 -10 -18 -10 -6 0 -2 7 10 15 17 12 27 13 47 4 l26 -12 -40 -29
c-44 -32 -55 -50 -15 -24 34 22 42 20 19 -5 -18 -20 -17 -20 21 2 34 20 38 20
25 5 -14 -18 -13 -19 15 -14 l30 6 -28 -24 c-16 -13 -27 -24 -25 -24 2 0 18 4
36 10 29 8 32 7 22 -5 -10 -13 -8 -15 16 -16 l29 -1 -35 -13 -35 -14 55 4 c40
3 48 2 30 -4 -22 -8 -11 -16 15 -11 7 1 7 -2 0 -9 -5 -5 -26 -11 -45 -14 -28
-3 -25 -4 15 -5 28 -1 63 5 79 13 16 9 31 13 33 11 10 -10 -65 -40 -112 -47
l-50 -6 48 -2 c49 -1 93 15 116 43 10 12 9 18 -7 34 -15 15 -17 23 -9 31 8 8
6 11 -7 11 -9 0 -14 5 -11 10 6 10 -17 40 -30 40 -3 0 -15 9 -27 20 -21 20
-21 20 -2 20 29 0 124 -112 124 -146 0 -6 -18 -31 -40 -54 -40 -42 -41 -43
-95 -37 -30 3 -80 17 -111 31 -62 29 -85 34 -41 10 16 -9 27 -18 24 -21 -3 -2
-14 0 -24 6 -14 7 -32 6 -64 -4 -38 -12 -40 -14 -15 -14 16 -1 54 -13 84 -27
31 -15 73 -29 94 -32 21 -2 41 -9 45 -15 4 -6 0 -8 -11 -4 -9 4 -15 3 -11 -2
7 -13 -14 -19 -55 -15 l-35 4 32 -10 c25 -8 41 -7 69 5 45 19 48 19 40 0 -3
-9 0 -15 10 -15 24 0 -5 -25 -50 -44 -20 -8 -36 -21 -36 -28 0 -6 -17 5 -38
25 -21 20 -41 37 -46 37 -4 0 45 -56 110 -124 l119 -124 30 13 c81 35 83 36
41 31 -22 -3 -43 -11 -47 -17 -4 -7 -15 -9 -24 -5 -10 3 -15 9 -12 12 3 3 -9
19 -26 36 -18 16 -26 27 -19 23 6 -3 12 -2 12 3 0 6 17 12 38 15 29 4 53 -2
110 -29 39 -19 77 -32 82 -29 5 3 7 -1 4 -9 -3 -8 -14 -18 -24 -21 -22 -7 -33
-32 -18 -41 6 -4 24 7 39 24 15 17 30 28 33 25 3 -3 13 0 23 8 11 9 14 10 9 2
-5 -9 1 -13 18 -13 22 0 26 5 26 30 0 16 9 52 20 79 10 27 22 72 26 99 l6 50
-39 -5 c-36 -5 -44 -1 -84 36 l-44 41 30 0 c17 0 41 3 54 7 17 4 22 3 17 -6
-6 -9 0 -10 21 -6 l28 6 -25 -15 c-28 -17 -10 -22 22 -5 11 6 22 8 25 5 3 -3
-14 -15 -38 -26 -24 -11 -39 -20 -33 -20 6 0 33 9 59 21 57 25 75 16 57 -28
-11 -26 -11 -27 3 -9 17 23 20 66 4 66 -5 0 -8 4 -5 9 9 14 -16 19 -41 10 -32
-12 -29 -5 10 21 l32 22 -30 -6 c-29 -6 -29 -6 -10 10 19 16 19 16 -10 10 -23
-5 -26 -4 -13 4 24 15 12 43 -12 30 -25 -13 -40 -12 -17 1 9 5 17 14 17 19 0
5 -8 7 -17 4 -17 -5 -17 -5 -1 8 14 12 4 14 -78 16 -51 2 -112 9 -135 17 -23
9 -44 13 -47 11 -2 -3 25 -14 60 -26 61 -20 62 -20 18 -16 -52 5 -35 -7 25
-19 l40 -8 -30 -7 -30 -8 35 -2 35 -3 -40 -7 c-33 -7 -27 -8 32 -7 39 1 69 -1
66 -5 -2 -5 -10 -8 -17 -8 -7 0 -21 -7 -32 -16 -10 -8 -14 -13 -7 -9 18 9 69
-6 52 -15 -41 -23 -141 -2 -108 22 11 8 10 9 -3 4 -21 -6 -62 33 -117 114 -54
78 -74 93 -119 92 -27 -1 -33 1 -22 8 12 8 10 10 -10 11 -23 0 -23 1 -5 9 18
8 18 9 -5 9 -20 1 -22 3 -10 11 11 7 6 10 -20 10 -20 0 -59 -13 -90 -30z m-40
-44 c0 -2 -8 -10 -17 -17 -16 -13 -17 -12 -4 4 13 16 21 21 21 13z m107 -12
c-16 -9 -31 -13 -34 -10 -3 3 5 10 18 15 37 15 47 12 16 -5z m-22 -224 c3 -5
2 -10 -4 -10 -5 0 -13 5 -16 10 -3 6 -2 10 4 10 5 0 13 -4 16 -10z m45 0 c8
-5 11 -10 5 -10 -5 0 -17 5 -25 10 -8 5 -10 10 -5 10 6 0 17 -5 25 -10z m97
-46 c-3 -3 -12 -4 -19 -1 -8 3 -5 6 6 6 11 1 17 -2 13 -5z m80 -130 c-3 -3
-12 -4 -19 -1 -8 3 -5 6 6 6 11 1 17 -2 13 -5z"/>
<path d="M3543 3413 c-39 -19 -52 -50 -52 -123 l0 -55 14 43 c7 24 22 53 32
65 14 17 12 17 -11 -3 -26 -23 -28 -23 -18 -4 6 12 9 24 6 26 -2 3 4 11 13 19
17 13 17 13 3 -5 -15 -19 -15 -19 15 -1 41 26 43 29 18 21 -34 -11 -28 2 10
18 17 8 25 14 17 15 -8 0 -29 -7 -47 -16z"/>
<path d="M3608 3403 c7 -3 16 -2 19 1 4 3 -2 6 -13 5 -11 0 -14 -3 -6 -6z"/>
<path d="M3590 3380 c-10 -6 -2 -7 25 -3 49 7 58 13 19 13 -16 0 -36 -5 -44
-10z"/>
<path d="M3685 3306 c22 -14 54 -27 70 -30 24 -5 23 -4 -8 8 -20 8 -47 22 -59
31 -13 8 -27 15 -33 15 -5 0 8 -11 30 -24z"/>
<path d="M3565 3276 c-33 -33 -41 -100 -21 -169 27 -92 54 -98 102 -25 27 39
29 49 24 109 -8 101 -52 138 -105 85z m65 -16 c24 -24 26 -72 4 -90 -8 -7 -14
-24 -12 -36 5 -36 -15 -33 -35 6 -17 35 -17 35 9 58 21 19 24 25 14 38 -11 13
-15 13 -31 -2 -11 -10 -19 -24 -19 -32 0 -9 -3 -13 -6 -9 -16 16 22 87 47 87
5 0 18 -9 29 -20z m-61 -155 c0 -5 -4 -3 -9 5 -5 8 -9 22 -9 30 0 16 17 -16
18 -35z"/>
<path d="M4945 3169 c-4 -6 -3 -14 3 -18 6 -3 11 -51 12 -111 2 -133 3 -129
-20 -100 -10 14 -21 22 -24 19 -3 -3 9 -25 27 -48 l32 -42 17 23 c9 13 27 36
39 51 32 41 12 48 -21 7 l-29 -35 -3 129 c-2 87 -7 131 -15 133 -6 2 -14 -1
-18 -8z"/>
<path d="M3710 3130 c-11 -7 -11 -10 -2 -10 10 0 10 -5 2 -20 -6 -10 -10 -23
-9 -27 1 -4 0 -10 -1 -13 -1 -3 -3 -17 -4 -31 -1 -20 2 -25 14 -22 21 8 -57
-58 -94 -79 -37 -21 -28 -23 17 -4 18 7 42 25 54 40 13 14 26 26 31 26 9 0 8
-42 -2 -58 -4 -7 -3 -12 3 -12 6 0 8 -7 5 -15 -4 -8 -1 -15 5 -15 6 0 8 -7 4
-17 -5 -12 -2 -15 10 -10 9 3 17 2 17 -3 0 -6 -4 -10 -10 -10 -5 0 -10 -4 -10
-10 0 -5 8 -6 17 -3 17 6 16 5 -1 -22 -10 -17 -30 -40 -45 -52 -14 -12 -20
-22 -13 -23 14 0 62 47 62 61 0 5 5 9 11 9 6 0 8 -7 5 -16 -4 -12 -2 -15 9
-10 8 3 15 1 15 -5 0 -5 14 -2 31 6 17 9 42 15 57 13 l27 -4 -30 -9 c-16 -4
-43 -17 -58 -27 -15 -11 -34 -17 -42 -14 -8 3 -15 1 -15 -4 0 -19 52 -23 88
-6 20 10 38 13 41 8 5 -8 79 -10 100 -3 11 3 -54 61 -68 61 -11 0 -11 3 4 13
20 16 12 39 -10 30 -27 -10 -16 6 15 22 36 19 46 19 31 1 -9 -11 -3 -21 30
-50 71 -61 90 -48 103 72 6 54 5 62 -10 62 -9 0 -32 -11 -49 -24 -66 -50 -125
-42 -125 17 0 26 -15 48 -79 117 -64 69 -82 83 -92 73 -15 -15 -33 -17 -24 -3
8 12 4 12 -15 0z m45 -110 c3 -5 1 -10 -4 -10 -6 0 -11 5 -11 10 0 6 2 10 4
10 3 0 8 -4 11 -10z m45 -96 c0 -8 -4 -12 -10 -9 -5 3 -10 10 -10 16 0 5 5 9
10 9 6 0 10 -7 10 -16z"/>
<path d="M3391 3074 c-27 -30 -41 -56 -41 -73 0 -41 28 -129 62 -192 29 -56
100 -139 118 -139 6 0 10 20 10 44 0 24 5 46 10 48 6 2 -14 38 -44 81 -32 47
-62 105 -77 149 -21 67 -22 73 -6 100 9 15 15 28 13 28 -2 0 -22 -21 -45 -46z
m-14 -56 c-3 -8 -6 -5 -6 6 -1 11 2 17 5 13 3 -3 4 -12 1 -19z"/>
<path d="M3329 3092 c-14 -9 -48 -36 -76 -60 -48 -41 -52 -47 -58 -103 -10
-86 14 -308 36 -330 10 -10 49 -28 88 -40 l70 -23 -36 -66 -37 -67 108 -137
c122 -155 171 -231 190 -295 14 -48 36 -67 36 -31 0 13 -11 79 -25 148 -32
155 -104 373 -183 552 -86 196 -106 260 -106 355 -1 73 1 80 22 91 33 16 38
24 16 24 -10 0 -31 -8 -45 -18z m-25 -152 c0 -71 3 -106 9 -98 6 9 7 8 3 -5
-3 -10 -6 -26 -7 -35 0 -9 -5 -4 -9 12 -5 16 -7 50 -5 75 4 38 3 41 -4 16 -6
-21 -7 -6 -4 45 4 71 9 100 15 100 2 0 3 -50 2 -110z m-27 48 c-3 -7 -5 -2 -5
12 0 14 2 19 5 13 2 -7 2 -19 0 -25z m-26 -29 c-6 -16 -10 -18 -10 -7 -1 22
12 55 16 42 2 -6 -1 -22 -6 -35z"/>
<path d="M3455 3090 c-13 -14 -16 -30 -12 -59 6 -48 53 -154 78 -177 18 -16
19 -16 21 12 1 16 2 37 2 46 0 9 4 16 10 15 6 -1 10 7 8 18 -2 11 -4 31 -6 45
-5 38 -36 97 -52 97 -8 0 -14 -7 -14 -14 0 -8 -5 -11 -10 -8 -6 3 -14 -4 -19
-17 -6 -13 -10 -17 -10 -10 -1 7 6 24 15 38 21 31 13 41 -11 14z m52 -72 c-3
-7 -5 -2 -5 12 0 14 2 19 5 13 2 -7 2 -19 0 -25z m21 -153 c-3 -3 -9 2 -12 12
-6 14 -5 15 5 6 7 -7 10 -15 7 -18z"/>
<path d="M3920 3055 c28 -16 70 -20 70 -6 0 9 -48 21 -79 21 -11 -1 -8 -5 9
-15z"/>
<path d="M5231 2909 c1 -83 -2 -124 -10 -127 -13 -4 -14 -41 -2 -60 4 -8 19
-12 32 -10 19 2 25 10 27 36 2 19 -1 32 -8 32 -8 0 -11 38 -9 123 1 107 -1
122 -15 125 -15 3 -17 -9 -15 -119z m19 -150 c-11 -8 -12 -12 -2 -16 6 -2 12
-9 12 -14 0 -12 -27 -12 -34 0 -10 15 5 41 23 41 14 0 14 -2 1 -11z"/>
<path d="M3646 2984 c-10 -25 1 -29 14 -5 6 12 7 21 1 21 -5 0 -12 -7 -15 -16z"/>
<path d="M4020 2991 c0 -5 -13 -11 -29 -14 -29 -6 -61 -31 -61 -47 0 -18 38
-30 62 -21 42 16 72 74 43 85 -8 3 -15 2 -15 -3z"/>
<path d="M3560 2981 c0 -6 5 -13 10 -16 6 -3 10 1 10 9 0 9 -4 16 -10 16 -5 0
-10 -4 -10 -9z"/>
<path d="M4147 2973 c-4 -4 6 -12 23 -19 16 -7 30 -20 30 -29 0 -12 -4 -11
-20 5 -19 19 -21 19 -40 3 -11 -10 -20 -28 -20 -40 0 -32 32 -30 72 6 29 26
31 31 20 55 -11 25 -49 36 -65 19z"/>
<path d="M3005 2891 c-302 -136 -339 -167 -431 -357 -80 -164 -93 -221 -75
-342 7 -48 16 -179 21 -292 13 -285 50 -456 122 -565 48 -73 94 -89 228 -82
58 3 130 11 160 17 45 10 563 150 608 165 10 4 9 10 -3 29 -18 27 -85 322 -85
374 0 17 -5 32 -11 32 -18 0 -213 -62 -223 -72 -6 -4 -34 -8 -64 -8 -72 0
-118 -23 -154 -79 -19 -30 -27 -37 -22 -21 3 14 10 29 15 35 15 15 10 22 -17
29 -45 12 -93 -30 -135 -115 -52 -104 -129 -274 -129 -282 0 -4 39 22 88 59
70 53 78 58 42 22 -25 -23 -58 -52 -74 -63 -15 -11 -34 -26 -41 -32 -10 -10
-14 -10 -18 2 -7 17 10 82 23 90 6 4 10 12 10 18 -1 23 -39 -35 -46 -69 -6
-35 10 -69 28 -58 5 3 18 -2 28 -11 21 -19 53 -8 64 22 6 14 2 13 -14 -4 -21
-24 -40 -30 -40 -14 0 5 7 11 15 15 8 3 15 10 15 16 0 6 -7 4 -16 -4 -16 -17
-34 -21 -34 -8 0 8 62 52 74 52 5 0 4 -6 -2 -13 -8 -10 -6 -13 8 -13 14 0 16
4 10 17 -9 16 4 34 40 54 13 8 13 7 1 -8 -10 -13 -11 -17 -1 -17 9 0 7 -7 -6
-22 l-19 -21 28 18 c18 12 24 21 17 25 -8 5 0 16 22 30 l33 24 -23 -26 c-16
-18 -20 -27 -11 -30 7 -2 -8 -19 -34 -38 -26 -18 -47 -35 -47 -37 0 -7 59 27
65 37 3 5 10 10 16 10 20 0 7 -17 -33 -43 -23 -15 -37 -27 -32 -27 20 0 119
82 117 96 0 9 2 13 5 10 7 -8 62 44 62 58 -1 6 -12 -2 -26 -19 -19 -21 -24
-24 -20 -10 6 17 4 16 -19 -5 -14 -14 -21 -26 -15 -28 13 -5 -6 -32 -22 -32
-6 0 -6 6 1 14 8 10 9 15 1 18 -6 2 8 21 30 43 28 28 39 34 35 20 -7 -21 -2
-16 48 47 18 23 18 22 1 -5 -9 -15 -14 -30 -11 -33 3 -3 17 15 32 40 15 25 29
46 31 46 11 0 -51 -105 -83 -141 -24 -26 -29 -37 -17 -32 17 6 18 5 4 -13 -14
-18 -14 -18 5 -4 11 8 30 23 42 33 12 11 26 16 32 13 6 -4 33 15 61 42 27 26
50 44 50 38 1 -6 9 5 20 24 11 19 19 31 20 26 0 -20 -53 -98 -59 -87 -5 7 -16
-1 -31 -21 l-23 -33 26 24 c15 14 27 19 27 13 0 -6 -4 -14 -10 -17 -5 -3 -10
-11 -10 -17 0 -7 6 -6 15 2 11 9 15 9 15 1 0 -6 -21 -24 -46 -39 -72 -43 -85
-57 -19 -21 66 36 90 60 72 71 -7 4 -2 19 15 45 14 21 31 47 37 58 5 11 10 16
11 10 0 -5 -12 -30 -25 -54 -14 -24 -24 -46 -21 -48 4 -4 26 31 64 102 8 14
11 15 12 5 0 -8 -11 -33 -25 -55 -30 -49 -32 -69 -3 -35 14 16 19 19 15 8 -8
-23 2 -23 19 0 10 12 13 13 14 3 0 -9 6 -7 19 8 14 16 21 18 25 9 5 -10 7 -10
12 1 5 11 11 8 26 -10 19 -24 19 -24 13 -1 -5 16 -2 22 9 22 9 0 16 6 16 13 0
7 7 4 15 -7 15 -19 15 -19 16 5 0 18 4 14 16 -19 20 -57 26 -49 13 18 -6 29
-9 54 -7 56 1 2 12 -24 24 -57 14 -42 17 -62 9 -64 -70 -24 -340 -94 -344 -90
-3 3 2 5 11 5 10 0 17 5 17 10 0 16 -18 11 -32 -9 -15 -21 -92 -46 -110 -35
-6 4 -8 3 -5 -3 7 -11 -141 -45 -183 -42 -14 1 -38 -2 -54 -6 -21 -6 -27 -5
-22 4 5 8 0 8 -17 2 -14 -6 -28 -7 -31 -4 -3 4 -6 1 -6 -6 0 -7 -5 -9 -12 -5
-7 4 -28 7 -48 6 -56 -3 -93 27 -130 105 -38 79 -45 100 -70 211 -13 58 -15
82 -7 82 9 0 9 2 0 8 -6 4 -13 51 -17 117 -3 61 -8 158 -11 218 -4 65 -2 107
4 107 5 0 7 10 3 22 -5 21 -6 21 -13 2 -7 -15 -8 -14 -9 11 0 17 -2 64 -5 105
-3 55 -2 64 4 36 5 -21 6 -47 4 -56 -5 -17 44 -137 52 -128 3 2 -6 28 -20 56
-14 29 -25 60 -25 69 0 10 16 -18 35 -62 39 -90 39 -89 24 -79 -8 4 -7 0 1
-15 6 -12 9 -27 7 -34 -2 -7 -11 2 -20 18 -24 44 -21 21 4 -27 11 -22 42 -64
67 -92 26 -28 38 -43 26 -33 -31 26 -41 20 -13 -9 l24 -26 -25 12 c-14 6 -41
31 -60 55 -19 24 -36 42 -38 40 -6 -6 36 -64 77 -108 26 -27 30 -36 16 -31
-20 7 -20 7 -1 -14 35 -40 2 -23 -48 26 -53 50 -46 33 13 -32 25 -26 29 -34
14 -25 -13 8 -23 17 -23 21 0 5 -5 8 -12 8 -6 0 1 -13 17 -30 24 -25 31 -28
49 -18 12 6 35 13 51 14 68 6 100 15 108 30 5 10 12 12 16 7 3 -6 39 -12 79
-15 88 -6 87 2 0 12 -62 7 -62 7 -15 9 45 1 117 -22 117 -38 0 -3 -46 -6 -102
-6 -87 0 -109 -3 -144 -22 -52 -28 -110 -92 -135 -150 -23 -54 -23 -49 -3 -57
12 -5 15 -2 10 11 -4 10 -4 14 0 11 9 -9 32 3 83 47 45 37 76 48 48 17 -25
-28 -58 -108 -56 -139 1 -15 -3 -41 -10 -56 -13 -33 -14 -116 -2 -135 5 -8 6
6 4 35 -7 71 12 131 45 144 34 13 53 30 115 104 28 33 55 59 61 57 6 -2 8 0 4
3 -4 4 4 22 17 40 28 35 24 45 -15 45 -53 0 -126 -30 -180 -75 -58 -48 -77
-57 -59 -27 16 25 112 94 152 109 18 6 63 12 100 12 110 1 135 28 72 77 -40
30 -40 39 -2 25 23 -9 28 -7 38 11 9 16 7 34 -7 81 -14 45 -15 62 -6 65 32 10
0 107 -68 207 -31 46 -53 85 -47 85 3 0 16 -18 31 -40 15 -23 30 -39 34 -36
14 8 28 -8 45 -49 l16 -40 0 46 c1 50 -55 178 -113 259 -40 57 -54 83 -27 50
39 -45 78 -105 110 -165 31 -60 32 -60 25 -20 -34 227 -174 400 -307 380 -31
-4 -38 -3 -27 4 47 33 151 -9 224 -90 53 -59 111 -175 127 -252 6 -28 15 -65
20 -82 13 -44 2 171 -12 218 -17 63 -3 54 17 -10 15 -45 18 -90 18 -205 0 -81
3 -145 6 -143 6 4 -4 -137 -14 -180 -6 -29 -6 -29 5 -5 38 85 51 159 57 325 4
120 8 158 13 130 15 -79 10 -260 -11 -365 -11 -56 -20 -105 -20 -108 0 -4 -5
0 -10 8 -8 11 -9 7 -4 -15 3 -19 2 -25 -3 -17 -7 9 -13 6 -21 -13 -9 -20 -9
-25 0 -19 8 5 9 2 5 -9 -15 -39 6 -13 28 36 14 28 25 45 25 37 0 -8 -16 -46
-34 -83 -19 -38 -29 -64 -22 -58 18 15 58 99 72 151 7 25 13 36 13 24 1 -30
-29 -113 -57 -159 -14 -22 -19 -34 -10 -28 8 7 18 10 21 6 4 -3 10 2 13 11 5
12 9 14 14 6 10 -16 39 32 62 100 16 48 18 50 12 15 -3 -22 -14 -57 -25 -79
-23 -47 -23 -52 -5 -37 11 9 15 9 18 -1 6 -16 45 60 57 109 6 23 9 29 10 16 1
-12 -8 -45 -19 -73 -11 -27 -17 -50 -14 -50 34 0 85 27 94 49 8 21 9 22 6 4
-2 -13 0 -23 6 -23 6 0 55 14 110 31 74 24 98 36 93 46 -3 8 -5 20 -6 26 0 7
-4 3 -9 -8 -7 -17 -9 -14 -10 15 -1 29 -3 32 -10 15 -7 -16 -9 -13 -9 17 -1
43 -10 70 -21 63 -5 -3 -12 9 -16 27 -6 29 -8 30 -15 13 -7 -18 -8 -17 -8 7
-1 14 -4 34 -7 42 -6 15 -8 15 -21 -1 -14 -17 -14 -17 -9 0 3 9 1 17 -3 17 -5
0 -7 10 -3 22 3 14 2 19 -6 14 -7 -4 -12 -1 -12 7 0 7 -29 53 -65 101 l-66 88
26 49 c24 48 37 103 15 69 -8 -13 -10 -13 -10 1 0 11 -15 21 -42 28 -72 21
-77 28 -93 142 -8 57 -15 134 -15 172 0 45 -4 67 -12 67 -6 0 -4 6 6 13 11 8
17 18 15 24 -2 6 -80 -24 -174 -66z m146 12 c13 -16 12 -17 -3 -4 -17 13 -22
21 -14 21 2 0 10 -8 17 -17z m-23 -19 c7 -14 8 -23 2 -19 -15 9 -32 45 -22 45
5 0 14 -12 20 -26z m-47 -8 c-12 -7 -18 -16 -14 -20 4 -5 -3 -3 -16 4 -21 11
-23 10 -18 -3 4 -11 2 -14 -9 -10 -23 9 -16 19 24 35 41 17 67 12 33 -6z m-41
-63 c0 -2 -10 3 -22 11 -13 8 -26 15 -30 16 -5 0 -14 0 -20 1 -7 0 -4 4 6 8
14 5 27 1 43 -13 13 -11 23 -21 23 -23z m-51 1 c14 -12 -19 -1 -35 12 -18 14
-18 14 6 3 14 -6 27 -13 29 -15z m-24 -15 c5 -5 -6 -4 -25 2 -45 15 -54 24
-15 15 17 -4 34 -12 40 -17z m-57 -6 c-10 -2 -26 -2 -35 0 -10 3 -2 5 17 5 19
0 27 -2 18 -5z m-25 -20 c-7 -2 -19 -2 -25 0 -7 3 -2 5 12 5 14 0 19 -2 13 -5z
m-56 -9 c-3 -3 -12 -4 -19 -1 -8 3 -5 6 6 6 11 1 17 -2 13 -5z m-24 -31 c-7
-2 -21 -2 -30 0 -10 3 -4 5 12 5 17 0 24 -2 18 -5z m356 -73 c0 -9 -4 -8 -9 5
-5 11 -9 27 -9 35 0 9 4 8 9 -5 5 -11 9 -27 9 -35z m-438 -9 c0 8 8 -13 18
-46 9 -33 23 -71 30 -85 11 -23 11 -24 -3 -6 -28 35 -19 -7 10 -45 37 -49 50
-80 19 -44 -40 45 -82 135 -93 195 -9 48 -8 52 4 35 10 -14 14 -15 15 -4z
m-28 -63 c3 -35 8 -72 12 -83 6 -19 6 -19 -6 -1 -7 11 -16 45 -20 75 l-8 56 3
-67 c2 -78 -3 -80 -15 -7 -8 50 1 89 20 89 5 0 11 -28 14 -62z m474 30 c-3 -8
-6 -5 -6 6 -1 11 2 17 5 13 3 -3 4 -12 1 -19z m-335 -18 c2 7 19 -16 37 -51
18 -35 26 -56 18 -47 -8 10 -17 15 -20 12 -7 -7 -52 63 -61 96 l-7 25 14 -24
c9 -15 16 -19 19 -11z m-174 -165 c0 -29 -16 29 -27 94 -5 30 -6 63 -3 75 6
19 30 -119 30 -169z m-22 10 c22 -84 75 -192 125 -250 l43 -50 -42 40 c-23 21
-42 34 -42 28 0 -11 49 -58 105 -101 l30 -23 -34 18 c-19 10 -57 40 -83 68
-55 56 -63 53 -17 -9 l31 -41 -37 40 c-20 22 -46 58 -57 80 -11 22 -24 42 -27
45 -4 3 -13 24 -21 48 -7 24 -17 45 -22 48 -17 11 -6 -74 17 -131 31 -75 31
-82 -1 -25 -13 25 -22 34 -18 20 11 -42 44 -101 54 -95 4 3 19 -9 31 -27 13
-17 18 -28 11 -24 -26 16 -10 -11 36 -58 37 -39 41 -45 15 -27 -17 12 -48 40
-67 64 -20 23 -36 37 -36 31 0 -6 17 -30 37 -55 l37 -44 -43 40 c-23 22 -58
72 -77 110 -29 60 -36 85 -41 160 -3 50 -2 87 3 82 4 -4 14 16 21 45 16 61 33
85 33 46 0 -14 9 -55 20 -90 24 -77 24 -85 -1 -33 -10 22 -19 35 -19 29 0 -6
11 -36 25 -65 19 -39 24 -46 20 -24 -4 25 -1 22 21 -18 14 -27 27 -47 30 -45
2 3 -9 31 -26 64 -35 69 -61 163 -59 214 2 33 2 33 6 5 2 -16 11 -57 19 -90z
m58 29 c3 -8 2 -12 -4 -9 -6 3 -10 10 -10 16 0 14 7 11 14 -7z m40 -20 c3 -8
2 -12 -4 -9 -6 3 -10 10 -10 16 0 14 7 11 14 -7z m36 -124 c11 -22 18 -40 15
-40 -2 0 -14 18 -25 40 -11 22 -18 40 -15 40 2 0 14 -18 25 -40z m195 -194 c0
-5 6 -11 14 -14 9 -3 11 0 6 9 -5 8 -4 11 1 6 5 -5 7 -10 4 -11 -3 -2 2 -11
10 -21 13 -17 13 -18 0 -10 -84 48 -159 110 -192 160 -13 19 -6 15 19 -13 52
-58 64 -54 16 6 -66 79 -58 75 34 -16 48 -48 88 -91 88 -96z m344 20 c1 -112
-5 -91 -11 34 -3 58 -2 92 2 75 4 -16 8 -66 9 -109z m-388 57 c13 -16 12 -17
-3 -4 -17 13 -22 21 -14 21 2 0 10 -8 17 -17z m546 -135 c-2 -13 -4 -3 -4 22
0 25 2 35 4 23 2 -13 2 -33 0 -45z m-647 6 c0 -3 -13 4 -30 16 -16 12 -30 24
-30 26 0 3 14 -4 30 -16 17 -12 30 -24 30 -26z m-190 -30 c12 -19 25 -33 28
-29 9 9 52 -37 45 -48 -4 -6 0 -8 11 -4 10 4 15 3 11 -3 -3 -6 -4 -10 -1 -10
2 0 12 -3 22 -7 13 -5 15 -3 9 8 -7 11 -6 12 6 3 8 -6 36 -19 62 -28 27 -10
46 -20 44 -23 -3 -2 -22 3 -42 11 -21 9 -48 16 -62 16 -46 0 -122 58 -152 117
-24 46 -10 45 19 -3z m587 -61 c-2 -16 -4 -5 -4 22 0 28 2 40 4 28 2 -13 2
-35 0 -50z m280 45 c-3 -8 -6 -5 -6 6 -1 11 2 17 5 13 3 -3 4 -12 1 -19z
m-843 -63 l47 -60 -50 53 c-28 29 -51 58 -51 64 0 6 2 9 4 7 2 -2 24 -31 50
-64z m633 -2 c-2 -38 -12 -85 -22 -107 -24 -55 -27 -40 -5 24 11 30 19 76 20
103 0 26 3 47 6 47 4 0 4 -30 1 -67z m240 -5 c-3 -8 -6 -5 -6 6 -1 11 2 17 5
13 3 -3 4 -12 1 -19z m-140 -55 c-3 -10 -5 -4 -5 12 0 17 2 24 5 18 2 -7 2
-21 0 -30z m-188 -32 c-7 -27 -16 -48 -20 -45 -4 2 -12 -4 -18 -13 -6 -10 -11
-13 -11 -7 0 6 9 21 20 34 11 12 22 38 26 57 4 19 9 32 11 29 3 -3 -1 -27 -8
-55z m168 37 c-3 -8 -6 -5 -6 6 -1 11 2 17 5 13 3 -3 4 -12 1 -19z m32 -52
c-9 -8 -10 -7 -5 7 3 10 7 28 7 40 2 16 3 14 6 -7 3 -16 -1 -34 -8 -40z m-48
-3 c-12 -20 -14 -14 -5 12 4 9 9 14 11 11 3 -2 0 -13 -6 -23z m-156 -185 c-28
-55 -85 -138 -85 -122 0 5 14 27 30 48 30 39 39 63 20 51 -19 -12 24 84 44 97
21 14 17 -22 -9 -74z m-330 -21 c-74 -77 -116 -106 -94 -64 20 37 46 67 91
103 74 59 76 37 3 -39z m164 18 c-24 -94 -28 -107 -34 -113 -8 -8 2 49 15 82
15 40 2 31 -16 -11 -9 -21 -18 -33 -21 -26 -7 18 52 121 63 110 2 -1 -2 -20
-7 -42z m417 -110 c-12 -33 -36 -68 -36 -52 0 10 39 87 44 87 2 0 -2 -16 -8
-35z m-42 -28 c-9 -26 -20 -47 -25 -47 -13 0 -12 4 13 55 27 56 33 53 12 -8z
m59 18 c-3 -9 -8 -14 -10 -11 -3 3 -2 9 2 15 9 16 15 13 8 -4z m84 -7 c-3 -8
-6 -5 -6 6 -1 11 2 17 5 13 3 -3 4 -12 1 -19z m-586 -11 c-10 -9 -11 -8 -5 6
3 10 9 15 12 12 3 -3 0 -11 -7 -18z m19 -10 c0 -2 -12 -14 -27 -28 -15 -13
-22 -17 -15 -8 6 9 8 20 4 24 -4 5 -2 5 5 1 6 -3 14 -2 18 4 6 10 15 14 15 7z"/>
<path d="M2721 2594 c0 -11 3 -14 6 -6 3 7 2 16 -1 19 -3 4 -6 -2 -5 -13z"/>
<path d="M2730 2558 c0 -9 5 -20 10 -23 13 -8 13 5 0 25 -8 13 -10 13 -10 -2z"/>
<path d="M2830 2585 c0 -13 32 -66 36 -62 6 6 -23 67 -31 67 -3 0 -5 -2 -5 -5z"/>
<path d="M2561 2325 c1 -19 18 -51 18 -35 0 8 -4 22 -9 30 -5 8 -9 11 -9 5z"/>
<path d="M2650 2285 c0 -13 32 -66 36 -62 6 6 -23 67 -31 67 -3 0 -5 -2 -5 -5z"/>
<path d="M2560 2247 c0 -12 61 -129 66 -125 2 3 -12 33 -31 69 -19 35 -35 60
-35 56z"/>
<path d="M2700 2241 c0 -5 5 -13 10 -16 6 -3 10 -2 10 4 0 5 -4 13 -10 16 -5
3 -10 2 -10 -4z"/>
<path d="M2640 2141 c0 -5 7 -15 17 -22 15 -13 15 -12 4 9 -12 23 -21 28 -21
13z"/>
<path d="M2910 2170 c19 -17 39 -30 45 -30 5 0 -6 14 -25 30 -19 16 -39 29
-45 29 -5 0 6 -13 25 -29z"/>
<path d="M2660 2010 c0 -5 10 -15 23 -21 22 -12 22 -12 3 10 -21 23 -26 26
-26 11z"/>
<path d="M3185 1710 c-14 -27 -21 -59 -10 -49 8 9 35 79 30 79 -2 0 -11 -13
-20 -30z"/>
<path d="M3643 2915 c-18 -8 -33 -17 -33 -20 0 -10 54 7 70 21 18 18 4 17 -37
-1z"/>
<path d="M3681 2891 c-14 -10 -30 -17 -36 -15 -7 3 -18 -2 -25 -11 -8 -10 -9
-15 -2 -15 6 0 9 -7 5 -16 -6 -15 -4 -15 18 0 21 13 76 77 67 76 -2 0 -14 -9
-27 -19z m-31 -31 c0 -5 -5 -10 -11 -10 -5 0 -7 5 -4 10 3 6 8 10 11 10 2 0 4
-4 4 -10z"/>
<path d="M4183 2840 c-24 -10 -43 -24 -43 -31 0 -9 3 -9 14 0 7 6 38 20 67 30
38 14 46 20 29 20 -14 0 -44 -8 -67 -19z"/>
<path d="M4910 2851 c0 -13 67 -23 101 -16 51 11 31 25 -36 25 -36 0 -65 -4
-65 -9z"/>
<path d="M3690 2843 c-21 -8 -60 -44 -60 -56 0 -6 10 -1 23 11 13 12 30 22 39
22 9 0 18 7 22 15 6 16 1 17 -24 8z"/>
<path d="M4214 2822 c-6 -4 -14 -18 -18 -32 -5 -17 -4 -21 2 -11 7 9 14 -2 27
-44 18 -55 19 -57 48 -51 17 3 32 8 34 10 6 6 -9 36 -16 32 -3 -2 -7 8 -7 22
-4 64 -35 98 -70 74z"/>
<path d="M3715 2812 c-31 -11 -49 -25 -64 -52 l-14 -25 28 25 c16 14 25 19 20
12 -6 -11 -3 -12 14 -3 16 9 52 55 39 50 -2 -1 -12 -4 -23 -7z"/>
<path d="M4922 2803 c2 -14 15 -19 49 -21 40 -3 47 0 52 18 5 18 1 20 -50 20
-46 0 -54 -3 -51 -17z"/>
<path d="M5347 2784 c-8 -27 -2 -69 9 -69 13 0 18 65 6 77 -7 7 -12 4 -15 -8z"/>
<path d="M4176 2728 c21 -54 46 -98 32 -58 -26 78 -43 120 -49 120 -4 0 3 -28
17 -62z"/>
<path d="M4983 2773 c-45 -3 -53 -7 -53 -24 0 -10 6 -19 13 -19 8 0 7 -4 -3
-10 -11 -7 1 -10 41 -10 41 0 58 4 63 15 4 11 23 15 81 15 43 0 75 4 75 10 0
6 -32 10 -75 10 -43 0 -75 4 -75 10 0 6 -3 9 -7 8 -5 -1 -32 -3 -60 -5z"/>
<path d="M4900 2746 c0 -14 5 -28 10 -31 6 -4 10 7 10 24 0 17 -4 31 -10 31
-5 0 -10 -11 -10 -24z"/>
<path d="M5290 2754 c0 -8 9 -14 20 -14 11 0 20 4 20 9 0 5 -9 11 -20 14 -13
3 -20 0 -20 -9z"/>
<path d="M4020 2727 c0 -23 5 -34 15 -34 19 0 24 17 14 45 -12 33 -29 27 -29
-11z"/>
<path d="M3561 2735 c-1 -11 -4 -43 -7 -72 l-7 -52 37 -7 c20 -3 39 -4 42 -2
2 3 -6 27 -19 54 -13 27 -29 60 -35 74 -9 22 -11 22 -11 5z"/>
<path d="M3660 2720 c-6 -11 -8 -20 -6 -20 3 0 10 9 16 20 6 11 8 20 6 20 -3
0 -10 -9 -16 -20z"/>
<path d="M3713 2733 c-19 -7 -16 -23 5 -23 15 0 14 -3 -4 -18 -12 -9 -25 -28
-29 -42 -5 -19 0 -16 21 15 16 22 29 48 29 57 2 19 -1 20 -22 11z"/>
<path d="M3910 2700 c-22 -7 -21 -8 13 -9 20 -1 37 4 37 9 0 11 -14 11 -50 0z"/>
<path d="M3727 2666 c-9 -13 -13 -33 -10 -46 l6 -23 18 24 c13 17 19 19 19 9
0 -9 8 -2 20 15 26 40 18 43 -26 10 -31 -24 -35 -25 -25 -7 6 12 19 26 29 31
15 9 15 10 1 11 -9 0 -24 -11 -32 -24z"/>
<path d="M4285 2674 c-22 -8 -53 -26 -70 -40 -25 -22 -26 -24 -5 -11 14 8 51
23 82 32 32 10 55 22 52 27 -6 10 -10 10 -59 -8z"/>
<path d="M4920 2638 c0 -51 -2 -54 -51 -97 -81 -69 -99 -143 -58 -228 80 -166
339 -110 339 73 0 74 -13 102 -70 154 -45 41 -51 51 -57 98 -6 51 -6 52 -39
52 l-34 0 0 -57 c0 -66 -3 -70 -48 -102 -18 -12 -30 -26 -27 -30 2 -5 -4 -16
-14 -25 -22 -20 -37 -6 -18 16 7 8 31 29 55 47 41 32 42 34 42 92 0 33 -4 59
-10 59 -5 0 -10 -24 -10 -52z m115 -178 c3 -5 1 -10 -4 -10 -6 0 -11 5 -11 10
0 6 2 10 4 10 3 0 8 -4 11 -10z m-177 -42 c-21 -5 -38 -14 -38 -18 0 -22 252
-25 304 -4 16 6 17 4 11 -27 -19 -87 -68 -131 -154 -137 -70 -4 -117 19 -148
74 -24 41 -31 110 -12 116 7 2 26 4 43 5 30 1 29 1 -6 -9z m235 -5 c-24 -2
-62 -2 -85 0 -24 2 -5 4 42 4 47 0 66 -2 43 -4z"/>
<path d="M4820 2359 c0 -32 64 -109 89 -109 13 1 13 2 -2 11 -9 6 -15 14 -12
20 4 5 -4 13 -17 18 -23 8 -25 20 -5 33 8 5 6 8 -6 8 -10 0 -20 7 -23 15 -7
17 -24 20 -24 4z"/>
<path d="M4940 2360 c0 -5 5 -10 11 -10 5 0 7 -4 4 -10 -3 -5 1 -10 10 -10 9
0 13 -4 10 -10 -3 -5 0 -10 7 -10 9 0 9 -3 -2 -10 -12 -8 -10 -10 10 -10 20 0
22 -2 10 -10 -12 -8 -10 -10 10 -10 30 0 76 37 89 73 l11 27 -85 0 c-50 0 -85
-4 -85 -10z"/>
<path d="M5243 2683 c-10 -4 -13 -53 -12 -206 1 -115 5 -189 9 -172 l8 30 1
-33 c1 -21 5 -31 12 -27 10 7 10 404 -1 410 -3 1 -11 0 -17 -2z"/>
<path d="M3822 2665 c-13 -7 -29 -21 -36 -31 -17 -25 -29 -104 -16 -104 5 0
10 10 11 23 0 12 5 31 10 42 6 14 7 -1 4 -45 -3 -43 -1 -60 5 -50 5 8 10 25
10 38 0 12 4 22 9 22 4 0 7 -19 5 -42 -3 -42 -3 -42 11 -18 9 16 15 20 15 10
1 -8 9 1 17 20 16 35 16 35 24 10 5 -20 7 -14 9 25 l2 50 15 -35 c13 -31 13
-37 -3 -65 -16 -27 -16 -29 -1 -16 9 7 22 31 28 52 7 21 16 36 20 33 5 -3 9 2
9 11 0 9 -4 13 -10 10 -13 -8 -13 1 2 25 11 16 9 22 -7 34 -13 9 -26 11 -42 5
-13 -5 -23 -6 -23 -2 0 4 -12 -4 -26 -18 l-26 -24 7 28 c4 15 6 27 4 26 -2 -1
-14 -7 -27 -14z"/>
<path d="M4310 2646 c-31 -10 -35 -15 -34 -46 0 -20 8 -51 17 -70 19 -42 29
-85 29 -124 1 -24 2 -26 11 -11 8 15 13 8 28 -41 10 -32 16 -68 13 -79 -4 -16
-3 -17 5 -5 8 12 11 11 16 -5 4 -11 11 -32 17 -47 l10 -27 39 26 c53 35 59 24
9 -16 -42 -33 -97 -107 -88 -117 3 -3 15 11 27 30 30 48 74 84 146 118 61 29
58 31 -30 16 -17 -3 -29 23 -96 200 -42 111 -78 204 -80 206 -2 2 -20 -1 -39
-8z m130 -271 c0 -5 -5 -3 -10 5 -5 8 -10 20 -10 25 0 6 5 3 10 -5 5 -8 10
-19 10 -25z"/>
<path d="M3740 2596 c-15 -41 -10 -56 6 -17 8 18 13 36 10 39 -3 2 -10 -7 -16
-22z"/>
<path d="M4247 2613 c-3 -5 1 -21 9 -38 11 -24 12 -25 7 -5 -3 14 -6 31 -6 38
0 14 -4 15 -10 5z"/>
<path d="M3502 2565 c21 -44 38 -58 38 -32 0 18 -38 77 -50 77 -5 0 0 -20 12
-45z"/>
<path d="M4211 2587 c-1 -22 162 -453 166 -440 3 8 -129 376 -157 438 -7 17
-9 18 -9 2z"/>
<path d="M3570 2570 c0 -5 5 -10 10 -10 6 0 10 5 10 10 0 6 -4 10 -10 10 -5 0
-10 -4 -10 -10z"/>
<path d="M3578 2553 c-10 -2 -18 -11 -18 -18 0 -26 12 -44 26 -38 19 7 18 23
-2 23 -8 0 -12 5 -9 10 4 6 10 8 15 5 4 -3 10 2 14 10 6 15 4 16 -26 8z"/>
<path d="M3657 2540 c3 -11 9 -20 13 -20 5 0 6 9 3 20 -3 11 -9 20 -13 20 -5
0 -6 -9 -3 -20z"/>
<path d="M3970 2536 c0 -23 -47 -73 -75 -80 l-26 -7 26 -33 c14 -18 25 -44 25
-57 0 -22 -46 -187 -65 -234 -8 -19 -7 -19 11 -3 10 9 31 21 46 27 29 11 31
19 48 200 l7 76 2 -85 c2 -58 5 -79 11 -65 7 15 9 16 9 4 1 -9 -6 -33 -15 -54
-20 -49 -12 -55 16 -11 30 49 35 45 9 -5 -16 -33 -18 -41 -6 -36 9 3 32 9 51
13 43 7 45 20 16 96 -11 29 -26 87 -35 128 -9 41 -21 90 -27 108 -12 33 -28
43 -28 18z"/>
<path d="M4191 2535 c0 -5 6 -19 14 -29 8 -11 15 -15 15 -10 0 6 -7 19 -15 30
-8 10 -14 15 -14 9z"/>
<path d="M4270 2529 c0 -8 7 -24 15 -35 19 -25 19 -14 0 22 -8 16 -15 22 -15
13z"/>
<path d="M4849 2483 c-13 -16 -12 -17 4 -4 9 7 17 15 17 17 0 8 -8 3 -21 -13z"/>
<path d="M3598 2467 c-16 -6 -28 -15 -28 -19 0 -5 23 -53 50 -108 28 -55 50
-107 50 -117 0 -41 20 8 34 86 23 122 22 149 -10 161 -31 12 -60 11 -96 -3z
m49 -49 c-3 -8 -6 -5 -6 6 -1 11 2 17 5 13 3 -3 4 -12 1 -19z m10 -85 c-3 -10
-5 -2 -5 17 0 19 2 27 5 18 2 -10 2 -26 0 -35z"/>
<path d="M4111 2454 c-28 -35 -28 -93 -1 -122 46 -50 130 -9 130 63 0 75 -86
114 -129 59z m85 -7 c20 -18 27 -32 26 -58 -1 -34 -30 -69 -57 -69 -23 0 -55
35 -61 67 -5 26 -1 37 19 57 32 32 39 32 73 3z"/>
<path d="M4132 2428 c-15 -15 -16 -60 0 -76 17 -17 43 -15 59 6 11 14 11 15
-1 5 -21 -20 -39 -15 -52 12 -8 19 -8 28 2 39 10 13 14 13 26 1 8 -7 14 -17
14 -21 0 -5 -5 -3 -12 4 -15 15 -28 16 -28 2 0 -5 6 -10 14 -10 8 0 16 -6 19
-12 3 -9 7 -7 12 6 15 36 -27 70 -53 44z"/>
<path d="M3780 2389 c-1 -87 -7 -171 -20 -254 -5 -33 -8 -72 -6 -87 2 -15 0
-25 -4 -23 -4 3 -10 -7 -13 -21 l-4 -25 29 28 c48 45 74 100 114 234 l36 126
-27 41 c-19 29 -35 42 -51 42 -12 0 -29 3 -38 6 -14 5 -16 -5 -16 -67z"/>
<path d="M3565 2390 c4 -14 13 -38 21 -54 7 -16 12 -32 9 -36 -3 -4 2 -10 10
-14 8 -3 15 -11 15 -18 0 -9 -3 -9 -11 2 -9 12 -9 11 -4 -5 4 -11 10 -28 12
-37 3 -10 9 -18 14 -18 5 0 5 -7 2 -17 -5 -11 -3 -14 6 -8 8 4 17 2 23 -6 30
-44 -48 147 -85 206 -17 27 -18 28 -12 5z"/>
<path d="M3728 2320 c-5 -47 -22 -107 -54 -195 -7 -18 -5 -18 18 3 34 31 50
91 46 177 l-3 70 -7 -55z"/>
<path d="M5488 2363 c-72 -8 -34 -33 50 -33 29 0 42 4 42 14 0 12 -35 29 -50
24 -3 -1 -22 -3 -42 -5z"/>
<path d="M4261 2344 c-1 -9 30 -105 63 -199 4 -11 -2 -4 -13 15 -22 38 -28 29
-10 -17 5 -15 6 -23 1 -18 -5 6 -15 28 -22 49 -18 55 -51 129 -56 124 -2 -3
10 -42 27 -88 17 -46 28 -92 26 -102 -5 -16 -2 -16 33 2 l38 19 -38 98 c-20
54 -40 105 -43 113 -3 8 -6 10 -6 4z"/>
<path d="M2355 2285 c-5 -2 -35 -6 -66 -10 l-56 -6 5 -57 c2 -31 8 -88 13
-127 7 -61 8 -53 5 55 -2 101 -1 113 6 63 25 -190 26 -194 23 -63 l-3 125 10
-117 c6 -65 14 -118 17 -118 3 0 5 42 4 92 l-1 93 8 -88 c13 -133 23 -119 17
23 l-6 125 14 -120 14 -120 -3 120 c-3 116 -3 117 6 40 15 -134 27 -174 22
-70 -3 50 -7 106 -10 125 -3 26 -2 31 5 20 6 -8 11 -37 12 -65 0 -27 5 -75 9
-105 6 -41 7 -24 5 65 -4 133 1 128 15 -15 l9 -95 -4 115 c-4 123 -1 131 15
35 l9 -60 -5 67 c-3 48 -1 68 8 71 14 6 -81 8 -97 2z m-48 -52 c-3 -10 -5 -4
-5 12 0 17 2 24 5 18 2 -7 2 -21 0 -30z"/>
<path d="M4120 2235 c0 -19 2 -35 4 -35 2 0 6 16 8 35 2 19 0 35 -4 35 -4 0
-8 -16 -8 -35z"/>
<path d="M2192 2185 c0 -44 3 -102 8 -130 l7 -50 0 65 c1 36 -3 94 -7 130 l-7
65 -1 -80z"/>
<path d="M2216 2155 c4 -60 11 -119 15 -130 4 -11 5 32 2 95 -3 63 -10 122
-14 130 -5 9 -6 -32 -3 -95z"/>
<path d="M5224 2248 c-4 -6 3 -19 16 -30 l22 -18 -23 0 c-17 0 -20 -3 -12 -11
15 -15 44 -4 50 20 5 19 6 19 38 1 38 -21 45 -18 45 22 0 18 -5 28 -15 28 -8
0 -15 -7 -15 -15 0 -18 -8 -18 -40 0 -31 18 -56 19 -66 3z m126 -28 c0 -5 -5
-10 -11 -10 -5 0 -7 5 -4 10 3 6 8 10 11 10 2 0 4 -4 4 -10z"/>
<path d="M3000 2233 c0 -5 10 -19 21 -33 l20 -25 -16 33 c-15 30 -25 41 -25
25z"/>
<path d="M4270 2233 c0 -4 5 -15 10 -23 8 -13 10 -13 10 2 0 9 -4 20 -10 23
-5 3 -10 3 -10 -2z"/>
<path d="M4565 2221 c-54 -24 -93 -59 -134 -117 l-34 -49 51 56 c60 66 103 89
129 68 11 -9 14 -10 9 -2 -4 8 4 19 23 31 17 10 28 22 24 25 -10 11 -25 8 -68
-12z"/>
<path d="M5100 2231 c0 -31 -200 -40 -247 -10 -23 14 -44 6 -27 -11 41 -41
314 -30 288 12 -5 7 -2 8 6 3 24 -15 80 -14 80 1 0 10 -14 14 -50 14 -27 0
-50 -4 -50 -9z"/>
<path d="M4192 2199 c-7 -12 -12 -22 -10 -23 2 -1 16 -10 31 -20 41 -26 26
-31 -19 -7 -64 35 -93 35 -200 5 -88 -25 -103 -33 -134 -69 -19 -22 -73 -79
-120 -126 l-86 -86 31 -94 c21 -64 36 -93 46 -92 93 11 168 38 235 85 41 28
71 54 68 59 -3 5 -1 9 5 9 5 0 11 -4 13 -9 5 -16 58 0 69 21 13 25 -2 38 -43
38 -14 0 -33 3 -42 6 -31 12 -15 20 40 19 44 0 59 4 68 18 16 26 -16 47 -69
47 -23 0 -49 6 -59 13 -15 11 -8 12 49 9 50 -3 70 -1 76 9 7 11 9 11 9 -3 0
-9 5 -20 11 -24 14 -8 2 54 -13 74 -7 7 -38 12 -82 13 -96 1 -129 14 -61 24
28 4 55 12 62 17 7 5 21 7 33 3 11 -4 20 -2 20 4 0 6 -4 11 -10 11 -5 0 -10 5
-10 12 0 6 7 4 18 -5 10 -10 26 -17 35 -17 9 0 17 -4 17 -10 0 -16 70 -12 76
5 6 14 -26 105 -36 105 -3 0 -11 -9 -18 -21z m-288 -132 c-7 -19 -24 -23 -24
-6 0 5 -6 7 -12 3 -7 -4 -4 2 6 15 21 23 41 15 30 -12z m36 -77 c0 -5 -7 -7
-15 -4 -18 7 -20 -12 -2 -20 6 -3 2 -3 -10 -1 -12 3 -24 2 -27 -4 -3 -5 -30
-28 -59 -51 -38 -31 -33 -24 22 28 68 64 91 77 91 52z m-125 -28 c-3 -3 -11 0
-18 7 -9 10 -8 11 6 5 10 -3 15 -9 12 -12z m118 -29 c-4 -10 -9 -11 -19 -2
-18 15 -18 15 5 15 11 0 17 -5 14 -13z m-153 -5 c0 -4 -4 -8 -9 -8 -6 0 -12 4
-15 8 -3 5 1 9 9 9 8 0 15 -4 15 -9z m194 -6 c-6 -4 -14 -16 -17 -26 -4 -10
-10 -16 -14 -13 -3 4 -20 -2 -37 -12 -34 -21 -86 -43 -86 -36 0 2 27 18 60 36
33 17 60 38 60 45 0 8 10 14 23 14 12 0 17 -4 11 -8z m46 -91 c0 -11 -99 -78
-140 -94 -47 -20 -120 -29 -120 -16 0 6 5 7 10 4 6 -3 10 2 11 12 0 10 3 13 6
6 2 -7 9 -13 14 -13 4 0 5 7 2 17 -4 11 -3 14 5 9 7 -4 12 -2 12 5 0 8 5 7 18
-3 18 -16 46 -13 36 4 -4 7 -9 6 -14 -2 -5 -8 -9 -7 -13 5 -4 9 -3 13 3 10 6
-3 10 -1 10 6 0 9 3 9 14 0 11 -9 15 -8 20 4 4 11 14 14 36 10 28 -5 30 -4 18
14 -9 15 -15 17 -21 8 -6 -8 -7 -8 -4 3 2 8 11 14 21 12 9 -2 16 1 16 6 0 5
14 7 30 4 17 -2 30 -8 30 -11z m-270 -121 c0 -5 -7 -10 -15 -10 -8 0 -15 5
-15 10 0 6 7 10 15 10 8 0 15 -4 15 -10z"/>
<path d="M3896 1775 c-3 -9 0 -15 9 -15 16 0 20 16 6 24 -5 3 -11 -1 -15 -9z"/>
<path d="M3820 1740 c0 -5 5 -10 11 -10 5 0 7 5 4 10 -3 6 -8 10 -11 10 -2 0
-4 -4 -4 -10z"/>
<path d="M4609 2198 c-5 -17 -6 -38 -2 -38 12 0 43 22 43 30 0 8 -38 15 -41 8z"/>
<path d="M4516 2155 c-14 -11 -17 -18 -9 -26 14 -14 63 9 56 27 -7 18 -23 17
-47 -1z m24 -9 c0 -2 -7 -7 -16 -10 -8 -3 -12 -2 -9 4 6 10 25 14 25 6z"/>
<path d="M4634 2155 c-7 -17 12 -45 31 -45 7 0 18 7 25 15 10 12 10 18 0 30
-16 19 -49 19 -56 0z"/>
<path d="M5243 2163 c-10 -4 -13 -58 -11 -231 1 -174 3 -204 8 -127 l6 100 2
-97 c1 -54 5 -98 10 -98 8 0 10 446 2 453 -3 2 -11 2 -17 0z m4 -150 c-2 -21
-4 -4 -4 37 0 41 2 58 4 38 2 -21 2 -55 0 -75z m0 -95 c-3 -8 -6 -5 -6 6 -1
11 2 17 5 13 3 -3 4 -12 1 -19z"/>
<path d="M5146 2131 c-10 -11 -20 -39 -22 -63 -12 -103 -13 -108 -40 -108 -21
0 -25 -4 -22 -22 2 -17 9 -23 26 -22 12 0 22 -3 22 -8 0 -4 -6 -8 -13 -8 -19
0 -35 -48 -39 -117 -4 -59 -3 -62 13 -47 13 12 28 14 63 9 l46 -7 0 87 c0 75
-2 86 -16 81 -9 -3 -18 -6 -20 -6 -2 0 -4 -4 -4 -10 0 -5 7 -10 15 -10 8 0 15
-3 15 -8 0 -4 -18 -6 -40 -4 -22 2 -38 8 -35 13 3 4 12 6 20 2 20 -7 19 21 0
41 -9 8 -22 13 -30 10 -8 -4 -15 -1 -15 5 0 6 17 10 40 9 22 -1 40 -5 40 -10
0 -4 -4 -8 -10 -8 -5 0 -10 -5 -10 -11 0 -20 33 -4 36 19 3 17 -1 22 -18 22
-20 0 -21 3 -15 73 5 63 10 75 34 94 19 16 23 23 12 23 -9 0 -24 -9 -33 -19z
m2 -324 l3 -37 -40 0 c-40 0 -41 1 -41 33 0 42 6 49 44 44 28 -3 31 -7 34 -40z"/>
<path d="M4610 2133 c0 -5 12 -20 28 -34 l27 -24 -25 30 c-14 17 -26 32 -27
34 -2 2 -3 0 -3 -6z"/>
<path d="M3102 2110 c0 -14 2 -19 5 -12 2 6 2 18 0 25 -3 6 -5 1 -5 -13z"/>
<path d="M4546 2117 c-11 -8 -15 -19 -10 -30 7 -20 17 -21 45 -7 16 9 17 14 6
30 -14 23 -18 24 -41 7z"/>
<path d="M4960 2096 l0 -38 -26 32 c-36 43 -41 31 -10 -23 18 -30 29 -66 33
-111 12 -132 32 -43 24 109 -3 60 -21 87 -21 31z"/>
<path d="M2468 2075 c-4 -27 -15 -117 -23 -200 -9 -82 -20 -186 -24 -230 -8
-72 -1 -189 13 -202 2 -3 15 15 27 39 12 23 29 54 38 68 10 15 11 21 3 16 -7
-4 -23 -28 -37 -54 -13 -26 -24 -41 -25 -34 0 17 37 89 50 97 5 3 10 12 10 18
0 7 -9 1 -20 -13 -23 -30 -27 -14 -4 18 8 12 11 22 5 22 -5 0 -12 -9 -16 -19
-3 -11 -12 -25 -20 -31 -13 -11 -14 -6 -10 31 3 24 10 59 16 76 6 18 8 37 4
43 -3 5 1 70 10 143 9 73 15 162 13 198 l-3 64 -7 -50z m-16 -537 c-7 -7 -12
-8 -12 -2 0 6 3 14 7 17 3 4 9 5 12 2 2 -3 -1 -11 -7 -17z"/>
<path d="M4709 2118 c-8 -15 -4 -48 5 -45 14 5 21 47 7 47 -6 0 -12 -1 -12 -2z"/>
<path d="M5004 2085 c-9 -13 -14 -29 -12 -35 2 -7 11 5 21 24 19 41 15 47 -9
11z"/>
<path d="M3707 2093 c-4 -3 -7 -13 -7 -22 1 -13 3 -13 11 2 11 19 8 33 -4 20z"/>
<path d="M2541 2075 c-1 -11 49 -98 74 -129 8 -11 17 -17 21 -14 3 3 -8 21
-24 39 -16 19 -39 52 -50 74 -12 22 -21 36 -21 30z"/>
<path d="M4572 2063 c-15 -12 -19 -22 -13 -32 11 -17 39 -8 48 14 10 27 -11
38 -35 18z m23 -23 c-3 -5 -10 -10 -16 -10 -5 0 -9 5 -9 10 0 6 7 10 16 10 8
0 12 -4 9 -10z"/>
<path d="M3670 2061 c0 -6 4 -13 10 -16 6 -3 7 1 4 9 -7 18 -14 21 -14 7z"/>
<path d="M4210 2018 c-13 -29 -24 -73 -24 -98 -2 -78 45 -168 68 -131 3 5 -3
35 -14 66 -24 69 -25 118 -5 174 21 59 2 51 -25 -11z"/>
<path d="M4467 2064 c-8 -8 1 -24 14 -24 5 0 9 7 9 15 0 15 -12 20 -23 9z"/>
<path d="M4430 2040 c0 -5 5 -10 11 -10 5 0 7 5 4 10 -3 6 -8 10 -11 10 -2 0
-4 -4 -4 -10z"/>
<path d="M4484 2016 c-8 -21 14 -56 31 -50 16 6 19 22 9 48 -8 20 -33 21 -40
2z"/>
<path d="M2287 2005 c-74 -13 -111 -25 -74 -25 26 0 211 31 216 36 8 8 -63 2
-142 -11z"/>
<path d="M4247 2005 c-19 -47 4 -188 26 -166 6 6 19 11 29 11 20 0 24 20 7 37
-6 6 -21 39 -33 73 -16 44 -25 58 -29 45z"/>
<path d="M4457 1980 c3 -11 10 -23 16 -27 7 -4 8 0 4 11 -4 10 -7 22 -7 27 0
5 -4 9 -9 9 -5 0 -7 -9 -4 -20z"/>
<path d="M2303 1963 c-8 -3 -13 -21 -13 -43 0 -46 30 -374 35 -378 2 -2 5 28
7 67 1 39 0 71 -4 71 -5 0 -7 17 -7 38 l2 37 7 -35 c5 -19 6 19 3 85 -7 134
-12 164 -30 158z m14 -85 c-2 -13 -4 -5 -4 17 -1 22 1 32 4 23 2 -10 2 -28 0
-40z m0 -65 c-3 -10 -5 -4 -5 12 0 17 2 24 5 18 2 -7 2 -21 0 -30z"/>
<path d="M2338 1913 c2 -32 10 -119 18 -193 11 -113 12 -120 8 -40 -8 186 -17
290 -24 290 -4 0 -5 -26 -2 -57z"/>
<path d="M2564 1935 c19 -37 65 -89 72 -82 3 3 -3 14 -13 24 -10 10 -31 34
-46 53 -27 33 -28 33 -13 5z"/>
<path d="M4504 1945 c-14 -11 -15 -14 -4 -14 8 0 24 6 34 14 15 11 16 15 5 15
-8 0 -24 -7 -35 -15z"/>
<path d="M4675 1921 c-135 -31 -518 -182 -502 -197 3 -3 47 13 98 34 52 22
138 59 193 81 85 37 100 40 110 27 10 -13 26 -11 136 18 91 24 126 38 128 50
5 22 -18 20 -163 -13z"/>
<path d="M5326 1901 c-14 -22 7 -31 74 -31 63 0 92 11 75 28 -12 12 -142 15
-149 3z m117 -18 c-7 -2 -19 -2 -25 0 -7 3 -2 5 12 5 14 0 19 -2 13 -5z"/>
<path d="M3600 1887 c-22 -11 -25 -19 -24 -62 0 -58 46 -259 52 -232 2 11 10
16 17 13 9 -3 12 1 9 12 -2 9 2 4 10 -13 13 -27 13 -31 -1 -42 -9 -7 -21 -14
-27 -16 -6 -2 -8 -7 -4 -11 5 -7 88 29 88 38 0 7 -89 318 -92 322 -2 1 -15 -3
-28 -9z"/>
<path d="M2563 1858 c12 -19 13 -28 5 -28 -6 0 -1 -11 11 -24 12 -13 23 -30
25 -37 1 -8 5 -19 8 -24 11 -17 -8 -40 -24 -29 -8 5 -6 2 4 -8 22 -20 23 -32
2 -24 -9 3 -12 2 -9 -5 4 -6 13 -8 21 -5 19 7 18 -8 -1 -24 -9 -7 -14 -15 -12
-17 2 -2 23 15 46 38 44 44 57 68 16 29 -14 -13 -27 -21 -30 -18 -8 8 85 88
101 88 7 0 15 4 18 8 11 18 -64 4 -94 -18 -25 -18 -32 -20 -28 -8 4 10 -3 25
-18 39 -14 13 -22 29 -19 39 3 10 -4 25 -17 36 l-22 19 17 -27z m115 -105
c-56 -45 -66 -50 -24 -11 23 21 45 38 49 38 5 0 -6 -12 -25 -27z"/>
<path d="M4936 1863 c16 -37 6 -81 -41 -177 -52 -105 -53 -124 -4 -137 38 -11
159 -10 159 1 0 5 -13 7 -30 4 -46 -10 -140 5 -147 23 -3 8 15 58 40 111 25
53 48 111 51 127 2 17 3 12 1 -10 -3 -44 -6 -56 -24 -98 -6 -16 -9 -33 -5 -38
3 -5 0 -9 -5 -9 -18 0 -12 -18 7 -23 10 -3 5 -5 -12 -6 -44 -2 -25 -12 35 -18
75 -8 74 -13 -2 -14 -35 -1 -54 -4 -41 -6 12 -2 20 -9 17 -14 -4 -5 20 -9 54
-9 52 0 61 3 61 18 0 10 -4 22 -9 27 -5 6 -12 20 -16 32 -5 18 -3 22 9 17 25
-9 20 20 -14 84 -20 37 -29 65 -25 79 4 19 1 23 -19 23 -14 0 -27 4 -31 10 -3
5 9 7 30 5 19 -3 35 -1 35 5 0 6 -18 10 -41 10 -36 0 -40 -2 -33 -17z"/>
<path d="M4371 1867 c2 -1 12 -9 22 -16 14 -12 17 -11 17 3 0 10 -8 16 -22 16
-12 0 -19 -1 -17 -3z"/>
<path d="M4420 1859 c0 -5 5 -7 10 -4 6 3 10 8 10 11 0 2 -4 4 -10 4 -5 0 -10
-5 -10 -11z"/>
<path d="M4340 1835 c0 -17 2 -18 24 -9 23 9 20 24 -4 24 -11 0 -20 -7 -20
-15z"/>
<path d="M4535 1840 c-3 -5 -2 -10 4 -10 5 0 13 5 16 10 3 6 2 10 -4 10 -5 0
-13 -4 -16 -10z"/>
<path d="M4281 1826 c-7 -9 -8 -17 -2 -20 15 -10 40 5 34 20 -7 18 -17 18 -32
0z"/>
<path d="M4380 1781 c-167 -65 -203 -81 -197 -87 3 -3 22 3 44 14 21 11 94 41
163 66 68 26 126 49 129 51 11 12 -23 1 -139 -44z"/>
<path d="M2565 1792 c15 -18 16 -25 6 -31 -7 -5 -9 -11 -5 -14 5 -3 14 1 21 8
9 10 6 18 -15 36 l-27 24 20 -23z"/>
<path d="M4542 1778 c-34 -17 -61 -33 -58 -35 8 -8 156 42 153 52 -7 19 -32
15 -95 -17z"/>
<path d="M4660 1800 c0 -5 7 -10 15 -10 8 0 15 5 15 10 0 6 -7 10 -15 10 -8 0
-15 -4 -15 -10z"/>
<path d="M4015 1781 c-16 -11 -55 -42 -85 -69 -51 -46 -54 -51 -42 -73 9 -18
11 -19 7 -4 -2 11 0 27 6 35 9 13 10 12 5 -2 -3 -10 -1 -18 4 -18 5 0 12 11
16 25 4 14 9 24 12 21 2 -3 21 7 41 23 35 27 93 61 106 61 4 0 -15 -16 -42
-36 -52 -39 -84 -72 -114 -119 -20 -32 -25 -50 -10 -41 5 4 12 0 15 -6 3 -7 3
-2 0 11 -4 14 -2 21 4 17 5 -3 21 11 36 32 14 21 39 48 55 60 l29 21 -34 -50
c-29 -43 -34 -59 -33 -103 l2 -51 7 40 7 40 3 -35 c2 -32 3 -30 13 20 l11 55
8 -59 c4 -32 11 -62 14 -65 4 -3 4 9 1 27 -4 18 -3 31 2 28 5 -3 12 13 15 37
4 23 11 49 16 57 7 11 8 5 5 -20 -4 -27 -3 -30 4 -15 7 15 10 6 11 -40 1 -43
4 -54 10 -40 l9 20 1 -20 1 -20 9 20 c5 11 10 38 11 60 2 34 3 36 6 10 6 -41
34 -115 44 -115 4 0 -1 19 -11 43 -27 58 -24 83 3 27 l21 -45 4 38 c2 29 -3
46 -21 70 -31 41 -77 132 -77 152 0 22 -68 20 -105 -4z m105 -91 c0 -5 -5 -10
-11 -10 -5 0 -7 5 -4 10 3 6 8 10 11 10 2 0 4 -4 4 -10z m-63 -52 c-3 -8 -6
-5 -6 6 -1 11 2 17 5 13 3 -3 4 -12 1 -19z"/>
<path d="M2466 1754 c-4 -14 -5 -28 -3 -31 3 -2 8 8 11 23 4 14 5 28 3 31 -3
2 -8 -8 -11 -23z"/>
<path d="M4595 1750 c-36 -18 -28 -19 25 -4 11 3 20 10 20 15 0 11 2 12 -45
-11z"/>
<path d="M4668 1763 c16 -6 5 -23 -16 -23 -23 0 -172 -59 -151 -60 25 0 151
40 177 56 12 8 22 19 22 24 0 6 -10 10 -22 9 -13 0 -17 -3 -10 -6z"/>
<path d="M4415 1741 c-3 -5 0 -13 7 -17 6 -4 14 -2 16 4 2 7 9 9 14 6 7 -4 8
-2 4 4 -9 14 -33 16 -41 3z"/>
<path d="M5192 1727 c-8 -9 -12 -26 -10 -39 3 -20 9 -23 58 -26 43 -3 57 1 67
14 20 27 16 54 -7 54 -13 0 -18 -5 -14 -15 5 -12 -2 -15 -34 -15 -34 0 -41 4
-44 22 -3 19 -4 20 -16 5z"/>
<path d="M2461 1664 c-12 -37 -20 -68 -18 -71 2 -2 14 27 26 63 12 37 20 68
18 71 -2 2 -14 -27 -26 -63z"/>
<path d="M4375 1719 c-4 -6 -5 -13 -2 -16 7 -7 27 6 27 18 0 12 -17 12 -25 -2z"/>
<path d="M5080 1690 c0 -28 2 -30 38 -30 37 0 38 1 34 30 -4 27 -8 30 -38 30
-31 0 -34 -3 -34 -30z"/>
<path d="M4607 1687 c-27 -12 -45 -26 -40 -31 4 -5 -1 -6 -12 -2 -24 7 -53 -8
-36 -18 6 -4 41 4 78 18 100 36 103 37 103 47 0 15 -43 9 -93 -14z"/>
<path d="M4453 1693 c-14 -5 -18 -33 -5 -33 4 0 14 5 22 10 17 11 2 30 -17 23z"/>
<path d="M3808 1680 c-53 -9 -68 -26 -68 -75 0 -35 -5 -48 -25 -63 -19 -15
-25 -29 -25 -60 0 -49 -8 -72 -25 -72 -24 0 -45 -31 -45 -66 0 -23 4 -33 11
-28 6 3 8 18 5 33 -4 17 -3 21 2 13 7 -11 11 -7 16 13 4 15 10 25 13 22 3 -4
0 -20 -7 -37 -7 -17 -11 -33 -8 -35 2 -3 17 31 33 75 30 89 45 102 21 19 -23
-76 -12 -72 14 6 12 36 24 64 26 62 3 -3 -9 -46 -25 -97 -16 -51 -26 -89 -22
-84 5 5 14 26 21 47 6 20 16 35 21 32 5 -4 6 0 4 7 -3 7 4 38 15 68 11 30 18
42 14 25 -3 -16 -10 -52 -15 -80 -4 -27 -11 -61 -14 -75 -5 -18 -4 -21 3 -10
13 20 105 348 100 358 -1 4 -20 5 -40 2z"/>
<path d="M2480 1648 c-12 -22 -12 -22 6 -6 10 10 15 20 12 24 -4 3 -12 -5 -18
-18z"/>
<path d="M4390 1655 c0 -28 73 -205 84 -204 6 1 22 5 36 9 22 7 20 8 -15 9
-27 1 -36 4 -26 10 26 17 -15 146 -43 135 -15 -6 -22 17 -17 49 0 4 -3 7 -9 7
-5 0 -10 -7 -10 -15z"/>
<path d="M4267 1649 c-12 -7 -15 -17 -11 -37 9 -37 18 -45 43 -37 29 9 28 53
-1 65 -22 8 -22 9 -2 9 40 2 44 -16 44 -175 0 -138 2 -154 21 -178 11 -14 16
-26 10 -26 -5 0 -17 10 -25 21 -11 16 -21 20 -38 16 -21 -5 -21 -5 -5 7 21 16
22 23 2 23 -8 0 -15 -4 -15 -8 0 -14 -29 -17 -71 -7 -24 6 -50 11 -58 11 -9 0
-4 8 12 21 32 26 63 95 71 161 4 34 3 44 -3 30 -5 -11 -10 -29 -10 -40 -2 -39
-22 -95 -44 -120 -13 -16 -42 -31 -72 -39 -40 -10 -51 -17 -53 -35 -2 -13 2
-28 8 -35 9 -8 10 -4 5 17 -7 25 -5 27 22 27 16 0 56 -11 89 -24 59 -24 108
-34 306 -61 91 -13 111 -13 140 -1 l33 14 -35 6 c-19 3 -77 12 -129 20 -56 9
-101 21 -110 31 -13 12 -17 48 -22 165 -5 125 -9 153 -24 170 -20 22 -50 25
-78 9z m28 -25 c17 -18 16 -35 -4 -42 -8 -3 -12 4 -9 19 2 15 -2 23 -9 22 -7
-2 -13 2 -13 7 0 15 17 12 35 -6z"/>
<path d="M2885 1595 c-20 -30 -38 -62 -41 -70 -4 -8 -10 -12 -15 -9 -14 8 -52
-83 -60 -141 l-6 -50 -1 50 c-1 28 5 61 13 75 19 33 19 50 0 24 -22 -32 -35
-103 -24 -132 5 -14 12 -22 16 -18 3 3 13 0 22 -7 14 -11 14 -10 2 6 -20 25
-8 80 30 135 21 32 29 39 24 22 -5 -19 -4 -21 4 -10 6 8 8 23 5 34 -4 13 -3
16 6 11 9 -5 11 -4 6 4 -5 7 8 38 28 71 44 75 38 79 -9 5z"/>
<path d="M5112 1643 c-79 -5 -72 -23 9 -23 46 0 59 3 59 15 0 8 -1 14 -2 13
-2 -1 -31 -3 -66 -5z"/>
<path d="M4476 1633 c-11 -11 -6 -23 9 -23 8 0 15 4 15 9 0 13 -16 22 -24 14z"/>
<path d="M5235 1630 l30 -7 -35 -5 -35 -5 41 -1 c29 -2 44 3 48 13 4 12 -3 15
-37 14 -39 -1 -40 -2 -12 -9z"/>
<path d="M5185 1580 c-8 -14 10 -44 38 -63 24 -15 24 -15 35 21 9 28 9 38 -1
44 -17 11 -65 10 -72 -2z"/>
<path d="M4565 1557 c-17 -13 -18 -17 -5 -32 22 -27 73 -45 127 -45 40 -1 45
-2 29 -12 -25 -14 -114 5 -153 34 l-28 20 28 -26 c48 -45 138 -59 177 -28 19
15 21 22 12 39 -24 44 -149 78 -187 50z"/>
<path d="M4092 1540 c0 -14 2 -19 5 -12 2 6 2 18 0 25 -3 6 -5 1 -5 -13z"/>
<path d="M4152 1550 c18 -51 20 -62 9 -56 -6 4 -11 3 -11 -3 0 -5 5 -13 10
-16 6 -3 10 -1 10 5 0 6 4 8 10 5 5 -3 2 11 -6 32 -16 37 -32 62 -22 33z"/>
<path d="M2619 1524 c-5 -15 -8 -29 -5 -31 2 -2 8 10 14 26 13 38 5 41 -9 5z"/>
<path d="M2651 1534 c0 -11 3 -14 6 -6 3 7 2 16 -1 19 -3 4 -6 -2 -5 -13z"/>
<path d="M4072 1530 c0 -14 2 -19 5 -12 2 6 2 18 0 25 -3 6 -5 1 -5 -13z"/>
<path d="M2491 1503 c-10 -26 -10 -27 4 -9 8 11 15 23 15 28 0 15 -7 8 -19
-19z"/>
<path d="M3885 1491 c33 -36 80 -64 98 -58 6 2 -3 10 -20 17 -17 8 -29 18 -26
24 3 5 1 6 -5 2 -18 -11 -37 4 -21 16 11 8 11 9 -1 5 -8 -2 -24 3 -35 12 -11
8 -6 1 10 -18z"/>
<path d="M4120 1511 c0 -6 4 -13 10 -16 6 -3 7 1 4 9 -7 18 -14 21 -14 7z"/>
<path d="M2641 1494 c0 -11 3 -14 6 -6 3 7 2 16 -1 19 -3 4 -6 -2 -5 -13z"/>
<path d="M3650 1489 c0 -11 5 -17 10 -14 6 3 10 13 10 21 0 8 -4 14 -10 14 -5
0 -10 -9 -10 -21z"/>
<path d="M4100 1501 c0 -6 4 -13 10 -16 6 -3 7 1 4 9 -7 18 -14 21 -14 7z"/>
<path d="M2682 1452 c-6 -30 -12 -63 -11 -75 0 -12 7 5 15 38 8 33 13 66 12
75 -2 8 -9 -9 -16 -38z"/>
<path d="M2506 1473 c-6 -14 -5 -15 5 -6 7 7 10 15 7 18 -3 3 -9 -2 -12 -12z"/>
<path d="M2662 1470 c0 -14 2 -19 5 -12 2 6 2 18 0 25 -3 6 -5 1 -5 -13z"/>
<path d="M2735 1457 c-8 -20 -14 -53 -14 -74 l1 -38 8 46 c4 26 13 56 20 69 6
12 9 24 6 27 -3 4 -13 -10 -21 -30z"/>
<path d="M2622 1460 c0 -14 2 -19 5 -12 2 6 2 18 0 25 -3 6 -5 1 -5 -13z"/>
<path d="M3430 1465 c0 -8 4 -15 10 -15 5 0 7 7 4 15 -4 8 -8 15 -10 15 -2 0
-4 -7 -4 -15z"/>
<path d="M3536 1464 c-11 -7 -18 -16 -15 -18 2 -2 13 2 23 10 11 7 18 16 15
18 -2 2 -13 -2 -23 -10z"/>
<path d="M4554 1471 c4 -6 16 -16 28 -22 15 -8 18 -8 14 0 -4 6 -16 16 -28 22
-15 8 -18 8 -14 0z"/>
<path d="M3464 1458 c4 -13 -10 -22 -57 -41 -34 -14 -75 -24 -92 -22 -16 2
-24 1 -17 -2 6 -2 9 -10 5 -16 -4 -6 -1 -8 8 -5 8 2 56 18 107 34 50 16 92 33
92 37 0 5 -7 7 -15 3 -8 -3 -19 3 -25 12 -10 15 -11 15 -6 0z"/>
<path d="M2651 1424 c0 -11 3 -14 6 -6 3 7 2 16 -1 19 -3 4 -6 -2 -5 -13z"/>
<path d="M3375 1430 c-3 -6 1 -7 9 -4 18 7 21 14 7 14 -6 0 -13 -4 -16 -10z"/>
<path d="M3310 1419 c0 -5 5 -7 10 -4 6 3 10 8 10 11 0 2 -4 4 -10 4 -5 0 -10
-5 -10 -11z"/>
<path d="M3340 1419 c0 -5 5 -7 10 -4 6 3 10 8 10 11 0 2 -4 4 -10 4 -5 0 -10
-5 -10 -11z"/>
<path d="M4470 1419 c0 -5 5 -7 10 -4 6 3 10 8 10 11 0 2 -4 4 -10 4 -5 0 -10
-5 -10 -11z"/>
<path d="M3159 1403 c-13 -16 -12 -17 4 -4 9 7 17 15 17 17 0 8 -8 3 -21 -13z"/>
<path d="M3189 1403 c-13 -16 -12 -17 4 -4 9 7 17 15 17 17 0 8 -8 3 -21 -13z"/>
<path d="M2935 1400 c-3 -5 -2 -10 4 -10 5 0 13 5 16 10 3 6 2 10 -4 10 -5 0
-13 -4 -16 -10z"/>
<path d="M3220 1400 c-9 -6 -10 -10 -3 -10 6 0 15 5 18 10 8 12 4 12 -15 0z"/>
<path d="M5360 1399 c0 -5 5 -7 10 -4 6 3 10 2 10 -4 0 -5 -19 -12 -42 -14
l-43 -4 42 -1 c33 -2 45 2 53 18 9 17 8 20 -10 20 -11 0 -20 -5 -20 -11z"/>
<path d="M4448 1372 c-5 -18 2 -20 100 -27 106 -7 328 -32 305 -34 -8 -1 -13
-14 -13 -32 0 -24 4 -30 18 -27 13 3 16 11 14 38 -2 19 -7 38 -10 42 -9 9
-240 37 -332 40 -36 2 -68 6 -71 11 -3 5 -9 0 -11 -11z"/>
<path d="M2465 1354 c-9 -14 -15 -27 -13 -30 2 -2 12 10 22 26 21 37 15 40 -9
4z"/>
<path d="M3100 1353 c-14 -15 -17 -21 -7 -13 9 7 21 10 24 6 4 -4 1 -11 -7
-16 -8 -6 -10 -10 -4 -10 6 0 17 7 24 15 10 12 10 15 0 15 -10 0 -10 3 0 15
21 26 -4 15 -30 -12z"/>
<path d="M3560 1360 c0 -11 -4 -20 -10 -20 -5 0 -7 7 -4 15 4 8 1 15 -5 15 -6
0 -11 -4 -11 -10 0 -5 -15 -10 -32 -11 -31 -1 -31 -2 10 -11 l43 -9 -7 -52
c-8 -68 11 -53 31 24 19 68 19 79 0 79 -8 0 -15 -9 -15 -20z"/>
<path d="M5048 1369 c-56 -22 -23 -39 77 -39 34 0 55 -4 47 -8 -7 -5 -11 -22
-8 -43 3 -19 5 -62 5 -96 1 -47 5 -63 15 -63 11 0 15 25 18 123 2 67 2 124 1
126 -5 9 -131 9 -155 0z"/>
<path d="M2500 1359 c0 -5 5 -7 10 -4 6 3 10 8 10 11 0 2 -4 4 -10 4 -5 0 -10
-5 -10 -11z"/>
<path d="M3060 1359 c0 -5 5 -7 10 -4 6 3 10 8 10 11 0 2 -4 4 -10 4 -5 0 -10
-5 -10 -11z"/>
<path d="M3155 1360 c-3 -6 1 -7 9 -4 18 7 21 14 7 14 -6 0 -13 -4 -16 -10z"/>
<path d="M5338 1353 c6 -2 18 -2 25 0 6 3 1 5 -13 5 -14 0 -19 -2 -12 -5z"/>
<path d="M2681 1334 c0 -11 3 -14 6 -6 3 7 2 16 -1 19 -3 4 -6 -2 -5 -13z"/>
<path d="M3672 1321 c-7 -19 -10 -36 -7 -39 6 -7 26 49 22 62 -2 6 -9 -5 -15
-23z"/>
<path d="M2540 1325 c-7 -9 -10 -18 -7 -21 3 -3 10 4 17 15 13 25 8 27 -10 6z"/>
<path d="M2730 1331 c0 -6 4 -13 10 -16 6 -3 7 1 4 9 -7 18 -14 21 -14 7z"/>
<path d="M3423 1333 c5 -4 25 -13 45 -19 33 -10 27 -11 -48 -8 -88 2 -87 -1 9
-30 59 -18 91 -20 91 -8 0 5 -16 9 -35 10 -20 1 -43 6 -53 12 -13 7 -8 8 18 4
19 -4 37 -7 40 -6 39 0 45 3 30 12 -12 8 -12 10 5 10 16 1 17 2 5 9 -21 12
-117 25 -107 14z"/>
<path d="M4255 1330 c-3 -5 -2 -10 4 -10 5 0 13 5 16 10 3 6 2 10 -4 10 -5 0
-13 -4 -16 -10z"/>
<path d="M2506 1313 c-6 -14 -5 -15 5 -6 7 7 10 15 7 18 -3 3 -9 -2 -12 -12z"/>
<path d="M3385 1320 c3 -5 10 -10 16 -10 5 0 9 5 9 10 0 6 -7 10 -16 10 -8 0
-12 -4 -9 -10z"/>
<path d="M2463 1295 c-6 -14 -8 -25 -4 -25 4 0 13 11 19 25 6 14 8 25 4 25 -4
0 -12 -11 -19 -25z"/>
<path d="M2565 1300 c3 -5 8 -10 11 -10 2 0 4 5 4 10 0 6 -5 10 -11 10 -5 0
-7 -4 -4 -10z"/>
<path d="M3636 1293 c-6 -14 -5 -15 5 -6 7 7 10 15 7 18 -3 3 -9 -2 -12 -12z"/>
<path d="M5140 1275 c0 -14 -7 -28 -15 -31 -10 -4 -14 -20 -12 -59 2 -40 5
-51 16 -47 9 3 12 1 7 -6 -4 -7 -2 -12 3 -12 7 0 11 33 11 90 0 50 -2 90 -5
90 -3 0 -5 -11 -5 -25z"/>
<path d="M2480 1268 c-12 -22 -12 -22 6 -6 10 10 15 20 12 24 -4 3 -12 -5 -18
-18z"/>
<path d="M2505 1260 c-9 -16 -13 -30 -11 -30 3 0 12 14 21 30 9 17 13 30 11
30 -3 0 -12 -13 -21 -30z"/>
<path d="M3360 1269 c122 -27 167 -33 105 -14 -66 20 -143 35 -169 34 -11 -1
17 -9 64 -20z"/>
<path d="M3237 1270 c4 -4 53 -15 108 -25 55 -9 103 -20 107 -24 5 -4 -40 1
-100 11 -59 10 -118 17 -132 16 -14 -2 28 -11 93 -22 138 -22 150 -33 17 -16
-118 15 -129 6 -13 -11 97 -14 102 -14 153 8 l35 15 -53 14 c-69 18 -225 43
-215 34z"/>
<path d="M2536 1245 c3 -8 10 -13 14 -10 5 3 11 1 15 -5 3 -5 16 -15 28 -21
l22 -11 -21 19 c-11 11 -30 26 -42 32 -18 10 -21 9 -16 -4z"/>
<path d="M3160 1230 c8 -5 26 -10 39 -10 32 0 24 6 -19 14 -25 4 -31 3 -20 -4z"/>
<path d="M3898 1233 c7 -3 16 -2 19 1 4 3 -2 6 -13 5 -11 0 -14 -3 -6 -6z"/>
<path d="M2630 1220 c0 -5 5 -10 11 -10 5 0 7 5 4 10 -3 6 -8 10 -11 10 -2 0
-4 -4 -4 -10z"/>
<path d="M4628 1223 c-13 -3 -18 -15 -18 -44 0 -39 5 -44 34 -33 11 4 16 19
16 45 0 21 -3 38 -7 38 -5 -1 -16 -3 -25 -6z"/>
<path d="M3133 1214 c11 -12 234 -52 247 -44 5 3 -43 14 -108 24 -64 10 -124
21 -132 24 -9 3 -11 1 -7 -4z"/>
<path d="M3945 1196 c-27 -14 -43 -25 -34 -25 9 -1 19 2 23 7 4 4 26 15 49 24
23 9 35 17 27 17 -8 1 -37 -10 -65 -23z"/>
<path d="M2516 1197 c3 -10 9 -15 12 -12 3 3 0 11 -7 18 -10 9 -11 8 -5 -6z"/>
<path d="M2550 1206 c0 -2 7 -7 16 -10 8 -3 12 -2 9 4 -6 10 -25 14 -25 6z"/>
<path d="M4288 1193 c7 -3 16 -2 19 1 4 3 -2 6 -13 5 -11 0 -14 -3 -6 -6z"/>
<path d="M2540 1170 c0 -5 3 -9 8 -8 4 1 26 -8 49 -20 63 -33 66 -26 4 8 -61
34 -61 34 -61 20z"/>
<path d="M2635 1150 c3 -5 8 -10 11 -10 2 0 4 5 4 10 0 6 -5 10 -11 10 -5 0
-7 -4 -4 -10z"/>
<path d="M4812 1151 c-11 -7 -10 -10 3 -15 25 -9 83 -7 89 3 12 19 -66 29 -92
12z"/>
<path d="M4845 1110 l-40 -6 35 -11 c26 -8 29 -11 13 -12 -14 -1 -23 -7 -23
-17 0 -12 9 -14 38 -12 25 2 37 8 37 18 0 8 -6 14 -14 12 -12 -3 -12 0 -2 12
16 19 4 23 -44 16z"/>
<path d="M4800 1079 c0 -5 -4 -7 -10 -4 -5 3 -10 1 -10 -4 0 -6 7 -11 15 -11
8 0 15 7 15 15 0 8 -2 15 -5 15 -3 0 -5 -5 -5 -11z"/>
<path d="M4760 1042 c0 -6 25 -16 55 -23 44 -10 64 -10 96 0 53 16 39 35 -15
20 -39 -11 -86 -9 -118 6 -11 4 -18 3 -18 -3z"/>
<path d="M2648 1033 c6 -2 18 -2 25 0 6 3 1 5 -13 5 -14 0 -19 -2 -12 -5z"/>
<path d="M4750 1000 c0 -27 35 -40 106 -40 65 0 94 13 94 41 0 17 -4 19 -22
12 -13 -4 -48 -8 -78 -8 -30 0 -65 4 -77 8 -19 7 -23 5 -23 -13z m115 -11 l60
-2 -45 -8 c-67 -12 -84 -11 -106 7 -18 15 -18 15 6 10 14 -3 52 -6 85 -7z"/>
<path d="M3092 943 l3 -58 275 -32 c151 -17 307 -34 345 -37 l70 -5 -70 11
c-38 5 -191 24 -340 42 l-270 32 -3 46 c-2 38 0 47 15 51 14 4 13 5 -5 6 -22
1 -23 -2 -20 -56z"/>
<path d="M3155 985 c6 -2 73 -11 150 -20 77 -9 295 -34 485 -56 639 -73 971
-109 998 -108 35 2 -222 32 -986 119 -580 65 -673 74 -647 65z"/>
<path d="M3208 953 c7 -3 16 -2 19 1 4 3 -2 6 -13 5 -11 0 -14 -3 -6 -6z"/>
<path d="M3278 943 c12 -2 30 -2 40 0 9 3 -1 5 -23 4 -22 0 -30 -2 -17 -4z"/>
<path d="M3158 933 c6 -2 18 -2 25 0 6 3 1 5 -13 5 -14 0 -19 -2 -12 -5z"/>
<path d="M3358 933 c12 -2 32 -2 45 0 12 2 2 4 -23 4 -25 0 -35 -2 -22 -4z"/>
<path d="M3225 925 c14 -6 359 -45 387 -44 27 2 -223 34 -327 43 -38 3 -65 4
-60 1z"/>
<path d="M3448 923 c12 -2 32 -2 45 0 12 2 2 4 -23 4 -25 0 -35 -2 -22 -4z"/>
<path d="M3128 913 c6 -2 18 -2 25 0 6 3 1 5 -13 5 -14 0 -19 -2 -12 -5z"/>
<path d="M3562 910 c26 -5 82 -11 125 -14 l78 -5 -90 14 c-49 7 -106 13 -125
13 -30 0 -29 -1 12 -8z"/>
<path d="M3203 903 c9 -2 23 -2 30 0 6 3 -1 5 -18 5 -16 0 -22 -2 -12 -5z"/>
<path d="M3340 884 c47 -7 103 -12 125 -12 22 0 -3 6 -55 14 -52 7 -108 12
-125 12 -16 0 8 -6 55 -14z"/>
<path d="M3798 883 c12 -2 32 -2 45 0 12 2 2 4 -23 4 -25 0 -35 -2 -22 -4z"/>
<path d="M3685 870 c69 -11 126 -10 65 1 -25 4 -61 7 -80 7 -29 -1 -26 -2 15
-8z"/>
<path d="M3893 873 c9 -2 25 -2 35 0 9 3 1 5 -18 5 -19 0 -27 -2 -17 -5z"/>
<path d="M3595 855 c50 -7 106 -13 125 -13 19 0 -5 6 -55 13 -49 7 -106 13
-125 13 -19 0 6 -6 55 -13z"/>
<path d="M3978 863 c12 -2 32 -2 45 0 12 2 2 4 -23 4 -25 0 -35 -2 -22 -4z"/>
<path d="M3828 853 c12 -2 32 -2 45 0 12 2 2 4 -23 4 -25 0 -35 -2 -22 -4z"/>
<path d="M4060 854 c31 -8 346 -44 370 -43 32 2 -315 48 -355 47 -16 0 -23 -2
-15 -4z"/>
<path d="M3955 840 c105 -15 567 -69 640 -74 l70 -5 -70 10 c-147 21 -553 68
-625 73 -74 5 -75 5 -15 -4z"/>
<path d="M3778 833 c12 -2 32 -2 45 0 12 2 2 4 -23 4 -25 0 -35 -2 -22 -4z"/>
<path d="M2885 820 c3 -5 17 -10 29 -10 34 0 190 -47 237 -70 21 -11 39 -16
39 -12 0 14 -110 60 -196 82 -86 22 -118 25 -109 10z"/>
<path d="M3878 823 c12 -2 30 -2 40 0 9 3 -1 5 -23 4 -22 0 -30 -2 -17 -4z"/>
<path d="M4070 800 c247 -34 555 -70 580 -69 33 1 -647 88 -685 88 -16 -1 31
-9 105 -19z"/>
<path d="M3115 785 c33 -14 66 -29 73 -32 6 -3 12 -2 12 1 0 10 -73 43 -110
50 -26 5 -20 1 25 -19z"/>
<path d="M4080 769 c162 -21 311 -38 330 -37 19 0 -100 18 -265 39 -165 21
-313 38 -330 37 -16 0 103 -18 265 -39z"/>
<path d="M4555 795 c55 -7 114 -13 130 -13 50 1 -50 15 -145 21 l-85 6 100
-14z"/>
<path d="M3000 771 c47 -15 109 -40 138 -54 28 -15 52 -23 52 -19 0 13 -126
68 -198 86 -91 24 -87 18 8 -13z"/>
<path d="M4738 773 c6 -2 18 -2 25 0 6 3 1 5 -13 5 -14 0 -19 -2 -12 -5z"/>
<path d="M3009 745 c18 -8 40 -15 48 -15 8 0 12 -4 8 -9 -3 -5 0 -13 6 -17 8
-4 9 -3 5 4 -10 17 -1 15 54 -13 28 -14 50 -23 50 -20 0 9 -141 73 -175 80
l-30 6 34 -16z"/>
<path d="M4693 753 c9 -2 25 -2 35 0 9 3 1 5 -18 5 -19 0 -27 -2 -17 -5z"/>
<path d="M3323 675 c0 -44 2 -61 4 -37 2 23 2 59 0 80 -2 20 -4 1 -4 -43z"/>
<path d="M3354 665 c0 -49 1 -71 3 -48 2 23 2 64 0 90 -2 26 -3 8 -3 -42z"/>
<path d="M3273 670 c0 -36 2 -50 4 -32 2 17 2 47 0 65 -2 17 -4 3 -4 -33z"/>
<path d="M3293 670 c0 -36 2 -50 4 -32 2 17 2 47 0 65 -2 17 -4 3 -4 -33z"/>
<path d="M3383 650 c0 -47 2 -66 4 -42 2 23 2 61 0 85 -2 23 -4 4 -4 -43z"/>
<path d="M4495 720 c28 -5 66 -8 85 -8 28 1 25 2 -15 8 -27 5 -66 8 -85 8 -28
-1 -25 -2 15 -8z"/>
<path d="M4698 723 c6 -2 18 -2 25 0 6 3 1 5 -13 5 -14 0 -19 -2 -12 -5z"/>
<path d="M3413 645 c0 -44 2 -61 4 -37 2 23 2 59 0 80 -2 20 -4 1 -4 -43z"/>
<path d="M3439 708 c-6 -71 -5 -109 2 -114 5 -3 9 24 9 60 0 36 -2 66 -5 66
-3 0 -5 -6 -6 -12z"/>
<path d="M3534 625 c0 -49 1 -71 3 -48 2 23 2 64 0 90 -2 26 -3 8 -3 -42z"/>
<path d="M4643 703 c9 -2 23 -2 30 0 6 3 -1 5 -18 5 -16 0 -22 -2 -12 -5z"/>
<path d="M3563 620 c0 -47 2 -66 4 -42 2 23 2 61 0 85 -2 23 -4 4 -4 -43z"/>
<path d="M3594 605 c0 -49 1 -71 3 -48 2 23 2 64 0 90 -2 26 -3 8 -3 -42z"/>
<path d="M3624 605 c0 -49 1 -71 3 -48 2 23 2 64 0 90 -2 26 -3 8 -3 -42z"/>
<path d="M3654 600 c0 -52 1 -74 3 -47 2 26 2 68 0 95 -2 26 -3 4 -3 -48z"/>
<path d="M3684 600 c0 -52 1 -74 3 -47 2 26 2 68 0 95 -2 26 -3 4 -3 -48z"/>
<path d="M3714 595 c0 -49 1 -71 3 -48 2 23 2 64 0 90 -2 26 -3 8 -3 -42z"/>
<path d="M3744 595 c0 -49 1 -71 3 -48 2 23 2 64 0 90 -2 26 -3 8 -3 -42z"/>
<path d="M3844 585 c0 -49 1 -71 3 -48 2 23 2 64 0 90 -2 26 -3 8 -3 -42z"/>
<path d="M3874 585 c0 -49 1 -71 3 -48 2 23 2 64 0 90 -2 26 -3 8 -3 -42z"/>
<path d="M3773 590 c0 -36 2 -50 4 -32 2 17 2 47 0 65 -2 17 -4 3 -4 -33z"/>
<path d="M3800 635 c0 -8 4 -15 10 -15 5 0 7 7 4 15 -4 8 -8 15 -10 15 -2 0
-4 -7 -4 -15z"/>
<path d="M3903 570 c0 -41 2 -58 4 -37 2 20 2 54 0 75 -2 20 -4 3 -4 -38z"/>
<path d="M3933 565 c0 -38 2 -53 4 -32 2 20 2 52 0 70 -2 17 -4 1 -4 -38z"/>
<path d="M3963 565 c0 -38 2 -53 4 -32 2 20 2 52 0 70 -2 17 -4 1 -4 -38z"/>
<path d="M4033 560 c0 -36 2 -50 4 -32 2 17 2 47 0 65 -2 17 -4 3 -4 -33z"/>
<path d="M4093 580 c0 -25 2 -35 4 -22 2 12 2 32 0 45 -2 12 -4 2 -4 -23z"/>
<path d="M4122 590 c0 -19 2 -27 5 -17 2 9 2 25 0 35 -3 9 -5 1 -5 -18z"/>
<path d="M3808 563 c5 -65 12 -68 12 -5 0 29 -4 52 -8 52 -5 0 -7 -21 -4 -47z"/>
<path d="M3991 584 c0 -11 3 -14 6 -6 3 7 2 16 -1 19 -3 4 -6 -2 -5 -13z"/>
<path d="M4211 584 c0 -11 3 -14 6 -6 3 7 2 16 -1 19 -3 4 -6 -2 -5 -13z"/>
<path d="M3670 1111 c0 -9 18 -13 150 -31 47 -6 102 -15 123 -19 22 -5 40 -5
43 1 3 5 4 11 3 13 -5 4 -278 45 -301 45 -10 0 -18 -4 -18 -9z"/>
<path d="M4200 1062 c0 -17 130 -45 167 -35 39 9 16 20 -54 28 -38 3 -78 9
-90 12 -13 3 -23 1 -23 -5z"/>
<path d="M4192 1019 c4 -13 87 -34 97 -24 10 11 -19 27 -59 32 -34 5 -42 3
-38 -8z"/>
<path d="M2778 913 c6 -2 18 -2 25 0 6 3 1 5 -13 5 -14 0 -19 -2 -12 -5z"/>
<path d="M1953 3897 c-103 -163 -120 -253 -82 -416 l23 -101 17 113 c22 149
53 306 57 286 3 -17 -44 -306 -54 -333 -13 -33 5 -14 45 48 84 129 106 240 77
387 -10 46 -21 87 -24 91 -4 4 -31 -29 -59 -75z"/>
<path d="M5749 3908 c-8 -35 -14 -103 -13 -153 1 -100 25 -174 83 -259 18 -25
40 -65 50 -87 l19 -41 5 38 c3 22 13 64 22 94 22 75 15 185 -18 267 -27 67
-111 203 -125 203 -5 0 -16 -28 -23 -62z m106 -311 c25 -138 30 -186 19 -174
-6 6 -65 333 -63 352 2 25 21 -52 44 -178z"/>
<path d="M1602 3435 c-65 -180 -63 -286 7 -432 23 -47 41 -93 41 -104 0 -10 5
-19 11 -19 8 0 9 14 5 43 -17 114 -26 220 -25 302 l2 90 8 -75 c5 -41 12 -127
17 -190 l7 -115 28 80 c54 155 46 267 -31 430 l-38 79 -32 -89z"/>
<path d="M6108 3443 c-54 -116 -62 -150 -62 -243 -1 -68 5 -103 29 -175 l30
-90 17 200 17 200 -5 -165 c-2 -91 -8 -186 -13 -212 -4 -27 -6 -50 -3 -53 9
-8 81 151 98 216 14 55 15 77 5 151 -10 77 -52 219 -71 241 -4 4 -23 -27 -42
-70z"/>
<path d="M6341 2999 c-58 -72 -106 -161 -127 -234 -13 -46 -15 -81 -11 -155 9
-139 16 -149 42 -54 43 154 89 303 93 299 8 -8 -31 -160 -74 -294 -24 -74 -44
-137 -44 -139 0 -3 12 13 26 34 14 21 41 55 59 74 41 43 78 117 95 189 13 56
8 229 -8 300 l-8 34 -43 -54z"/>
<path d="M1386 3003 c-3 -21 -9 -81 -12 -133 -10 -154 22 -250 121 -361 30
-34 55 -68 55 -77 0 -8 2 -13 5 -10 3 3 -10 52 -29 109 -41 121 -71 235 -80
299 -6 44 55 -144 93 -284 10 -38 21 -64 25 -58 4 6 9 55 13 109 6 109 -8 187
-51 270 -29 57 -112 173 -125 173 -4 0 -11 -17 -15 -37z"/>
<path d="M1976 2839 c-106 -43 -213 -135 -257 -220 -19 -37 -61 -180 -56 -186
2 -2 20 21 41 51 20 30 80 98 133 152 103 106 100 101 -23 -46 -44 -52 -96
-116 -117 -141 l-37 -47 83 44 c93 51 154 105 204 182 46 71 106 233 86 231
-5 0 -30 -9 -57 -20z"/>
<path d="M5740 2857 c0 -15 54 -154 78 -203 36 -71 133 -166 208 -203 27 -14
62 -34 78 -45 27 -18 -28 52 -199 257 -31 37 -53 67 -48 66 13 -1 192 -201
226 -252 17 -26 32 -46 33 -44 1 1 -4 31 -12 66 -29 123 -89 210 -196 282 -71
48 -168 92 -168 76z"/>
<path d="M1410 2460 c-11 -11 -20 -27 -20 -35 0 -24 39 -57 60 -50 23 7 58
-37 90 -113 13 -29 25 -50 28 -48 9 9 -39 122 -62 147 -17 18 -22 33 -19 56 4
24 0 34 -18 47 -30 21 -35 20 -59 -4z"/>
<path d="M1254 2364 c14 -111 45 -235 73 -286 35 -65 106 -144 147 -165 17 -8
46 -29 64 -46 17 -17 32 -28 32 -25 0 4 -35 62 -79 130 -85 133 -169 288 -157
288 3 0 182 -283 209 -332 l19 -33 -7 70 c-9 91 -35 173 -74 233 -32 51 -142
161 -200 202 l-34 23 7 -59z"/>
<path d="M1836 2335 c-66 -66 -94 -103 -123 -163 -35 -72 -38 -84 -41 -182
l-3 -105 39 90 c41 95 136 273 154 290 7 7 8 4 0 -10 -5 -11 -44 -94 -86 -185
-42 -91 -81 -173 -86 -182 -20 -37 -8 -27 73 54 119 118 160 210 173 391 5 61
4 87 -4 87 -6 0 -49 -38 -96 -85z"/>
<path d="M5848 2338 c6 -137 40 -244 105 -330 27 -35 157 -170 157 -162 0 1
-43 93 -95 204 -53 112 -94 205 -91 207 8 9 145 -263 179 -357 3 -8 6 24 6 71
1 114 -24 198 -85 278 -41 55 -159 171 -173 171 -4 0 -5 -37 -3 -82z"/>
<path d="M6465 2370 c-157 -125 -223 -238 -240 -410 l-6 -65 49 80 c112 183
171 277 177 283 36 37 -146 -285 -212 -374 -31 -42 -29 -53 5 -22 15 13 43 34
63 46 55 33 132 121 162 185 32 67 69 233 65 288 l-3 37 -60 -48z"/>
<path d="M1907 1902 c-50 -76 -97 -183 -114 -257 -17 -80 -13 -141 20 -260
l14 -49 7 64 c4 36 18 119 32 185 31 157 34 168 40 162 3 -3 -6 -72 -19 -154
-14 -81 -28 -170 -32 -198 -3 -27 -9 -59 -12 -70 -7 -29 56 71 85 133 57 124
66 243 31 393 -11 49 -22 89 -24 89 -1 0 -14 -17 -28 -38z"/>
<path d="M5833 1904 c-54 -183 -38 -358 43 -488 16 -26 37 -62 47 -79 l18 -32
-5 35 c-3 19 -19 118 -36 219 -17 101 -29 188 -27 194 4 13 44 -167 66 -303
l17 -105 22 81 c24 89 27 147 11 226 -12 58 -85 216 -122 262 l-23 28 -11 -38z"/>
<path d="M1738 1859 c-26 -14 -23 -65 3 -79 16 -9 26 -8 45 5 29 18 31 46 6
68 -21 19 -30 20 -54 6z"/>
<path d="M1422 1838 c-18 -18 -15 -53 6 -71 21 -20 43 -22 59 -6 8 8 26 -3 65
-42 30 -30 64 -67 77 -84 l22 -30 -20 40 c-18 39 -97 125 -113 125 -4 0 -8 13
-8 28 0 35 -16 52 -50 52 -14 0 -31 -5 -38 -12z m52 -69 c-3 -5 -11 -9 -19 -9
-8 0 -16 4 -19 9 -3 5 5 9 19 9 14 0 22 -4 19 -9z"/>
<path d="M6440 1710 c-163 -68 -268 -161 -332 -296 -43 -93 -48 -116 -15 -81
57 62 298 277 270 242 -36 -46 -229 -236 -288 -283 -22 -18 -35 -32 -29 -32 5
0 14 4 20 9 5 5 36 16 69 26 166 47 254 141 349 375 14 35 25 64 23 65 -1 1
-31 -10 -67 -25z m-250 -354 c0 -3 -15 -14 -32 -26 l-33 -22 28 26 c27 25 37
31 37 22z"/>
<path d="M1278 1718 c5 -7 13 -24 17 -38 36 -123 126 -263 209 -322 23 -17 30
-19 38 -7 8 11 9 10 4 -3 -6 -20 24 -36 107 -57 27 -6 61 -19 75 -28 15 -9 0
8 -33 38 -102 90 -276 262 -297 294 -21 30 15 -1 160 -140 36 -35 72 -60 84
-60 12 0 23 -7 26 -15 5 -13 3 -13 -14 -1 -10 8 -3 -1 16 -21 19 -20 36 -35
38 -33 2 2 -10 36 -27 77 -54 128 -141 214 -296 289 -83 40 -127 51 -107 27z
m57 -78 c3 -5 1 -10 -4 -10 -6 0 -11 5 -11 10 0 6 2 10 4 10 3 0 8 -4 11 -10z
m115 -22 c0 -6 -6 -5 -15 2 -8 7 -15 14 -15 16 0 2 7 1 15 -2 8 -4 15 -11 15
-16z m55 -36 c-3 -3 -11 0 -18 7 -9 10 -8 11 6 5 10 -3 15 -9 12 -12z m-141
-8 c3 -8 2 -12 -4 -9 -6 3 -10 10 -10 16 0 14 7 11 14 -7z m201 -44 c21 -22
37 -40 34 -40 -3 0 -23 18 -44 40 -21 22 -37 40 -34 40 3 0 23 -18 44 -40z
m-168 -17 c11 -21 26 -37 32 -35 7 1 9 -2 5 -9 -4 -7 3 -19 17 -30 13 -10 20
-21 16 -26 -5 -4 -17 3 -28 17 -34 44 -79 120 -71 120 5 0 18 -17 29 -37z
m103 -58 c30 -30 52 -55 49 -55 -2 0 -29 25 -59 55 -30 30 -52 55 -49 55 2 0
29 -25 59 -55z m115 -105 c10 -11 16 -20 13 -20 -3 0 -13 9 -23 20 -10 11 -16
20 -13 20 3 0 13 -9 23 -20z"/>
<path d="M2036 1340 c-46 -185 -32 -307 50 -445 30 -51 35 -55 30 -29 -5 31
-22 232 -29 347 -2 31 -1 57 3 57 7 0 32 -221 47 -402 6 -74 8 -79 14 -43 4
22 15 60 25 85 11 28 19 83 22 145 4 89 1 109 -23 180 -25 75 -86 198 -103
209 -5 3 -21 -44 -36 -104z"/>
<path d="M5685 1410 c-69 -108 -112 -274 -102 -384 5 -48 56 -223 57 -194 0 3
6 64 14 135 8 70 18 167 21 216 4 48 11 87 16 87 5 0 7 -15 5 -32 -3 -18 -8
-85 -11 -148 -6 -111 -19 -220 -31 -257 -9 -27 75 115 92 156 8 20 20 71 25
114 11 86 -3 191 -39 297 l-19 55 -28 -45z"/>
<path d="M1918 1343 c-39 -9 -33 -84 6 -91 24 -5 58 28 54 51 -4 24 -37 45
-60 40z"/>
<path d="M5808 1316 c-9 -22 -8 -29 7 -46 35 -38 79 -16 73 37 -2 23 -8 29
-35 31 -27 3 -35 -1 -45 -22z"/>
<path d="M1605 1220 c-15 -16 -17 -26 -9 -48 11 -31 45 -40 79 -22 18 10 30 8
72 -14 28 -13 64 -37 82 -52 18 -14 34 -24 37 -21 8 8 -65 64 -123 94 -29 16
-53 33 -53 40 0 13 -38 43 -56 43 -6 0 -19 -9 -29 -20z"/>
<path d="M1470 1074 c0 -2 10 -18 22 -35 20 -27 23 -28 30 -12 6 13 7 11 4 -7
-6 -34 37 -85 60 -72 11 6 13 11 5 16 -6 4 -11 2 -11 -4 0 -6 -5 -8 -11 -4 -8
4 -3 12 12 20 25 14 20 18 -18 14 -13 -1 -23 3 -23 8 0 6 10 8 23 5 17 -4 19
-2 7 6 -8 5 -12 13 -8 16 3 4 16 -3 28 -15 21 -21 348 -190 361 -187 4 1 15
-5 25 -14 11 -9 26 -20 34 -24 20 -12 6 7 -78 102 -95 109 -167 140 -429 187
-18 3 -33 3 -33 0z m215 -72 c-3 -3 -11 0 -18 7 -9 10 -8 11 6 5 10 -3 15 -9
12 -12z m10 -22 c-3 -5 -1 -10 6 -10 7 0 10 -3 6 -6 -9 -9 -28 6 -22 17 4 5 8
9 11 9 3 0 2 -4 -1 -10z m70 0 c3 -6 -1 -7 -9 -4 -18 7 -21 14 -7 14 6 0 13
-4 16 -10z m-26 -39 c-15 -5 -22 6 -14 19 6 9 10 9 16 -1 5 -8 4 -15 -2 -18z
m205 -97 c5 -14 4 -15 -9 -4 -17 14 -19 20 -6 20 5 0 12 -7 15 -16z"/>
<path d="M6222 1064 c-190 -28 -301 -85 -396 -202 -31 -38 -56 -71 -56 -74 0
-2 88 40 195 94 107 54 195 97 195 94 0 -11 -148 -96 -283 -162 -82 -40 -152
-76 -156 -80 -3 -4 0 -4 8 1 8 4 57 9 110 11 139 4 235 45 332 144 34 35 143
180 138 183 -2 2 -41 -2 -87 -9z"/>
<path d="M2330 892 c0 -189 30 -273 141 -398 35 -40 65 -71 66 -70 2 2 -6 21
-17 44 -27 56 -131 364 -127 376 3 10 68 -152 128 -317 37 -103 49 -100 49 13
0 87 -19 168 -57 247 -29 58 -123 176 -160 201 l-23 14 0 -110z"/>
<path d="M5374 927 c-115 -121 -172 -271 -160 -420 3 -38 0 -80 -5 -95 -6 -15
-6 -22 -1 -17 9 10 28 59 112 290 53 145 82 200 54 105 -20 -70 -75 -229 -103
-300 l-22 -54 22 19 c101 87 164 198 179 315 12 95 13 230 1 230 -5 0 -39 -33
-77 -73z"/>
<path d="M1600 974 c0 -4 8 -13 18 -21 9 -8 11 -12 4 -8 -6 3 -19 0 -27 -8
-13 -13 -8 -22 45 -70 32 -30 83 -67 112 -81 61 -29 162 -48 195 -35 15 5 37
3 64 -6 23 -9 44 -14 45 -12 2 2 -70 40 -159 84 -89 45 -190 100 -225 122 -64
42 -72 46 -72 35z m24 -50 c9 -3 16 -13 16 -21 0 -10 6 -13 17 -9 10 4 14 4
10 0 -4 -4 -2 -13 5 -21 23 -29 -2 -23 -36 8 -44 40 -49 57 -12 43z m105 -42
c30 -19 95 -54 145 -77 82 -38 87 -42 54 -42 -20 1 -35 4 -32 8 9 15 -19 21
-42 9 -18 -10 -26 -10 -38 -1 -8 7 -20 10 -25 7 -5 -4 -12 -2 -15 3 -3 5 1 11
9 15 27 10 16 23 -60 71 -41 25 -75 49 -75 51 0 6 3 4 79 -44z m-14 -43 c11
-17 -1 -21 -15 -4 -8 9 -8 15 -2 15 6 0 14 -5 17 -11z m70 -19 c3 -6 -1 -7 -9
-4 -18 7 -21 14 -7 14 6 0 13 -4 16 -10z m-30 -10 c3 -5 1 -10 -4 -10 -6 0
-11 5 -11 10 0 6 2 10 4 10 3 0 8 -4 11 -10z"/>
<path d="M1804 809 c-3 -5 5 -13 18 -18 24 -9 42 -5 33 8 -8 13 -44 20 -51 10z"/>
<path d="M5515 860 c-36 -40 7 -96 55 -70 27 14 27 65 1 80 -27 14 -35 13 -56
-10z"/>
<path d="M1893 498 c-35 -5 -63 -13 -63 -16 1 -7 86 -74 104 -81 5 -2 5 2 1 9
-5 9 -4 11 4 6 6 -4 9 -11 6 -16 -8 -12 105 -76 177 -101 65 -21 136 -22 161
0 12 9 17 9 23 0 4 -7 3 -9 -4 -5 -6 3 -13 2 -17 -4 -3 -5 3 -10 14 -10 12 0
21 4 21 9 0 5 8 7 18 4 10 -2 38 3 62 11 25 9 56 16 70 17 14 0 -45 13 -130
29 -178 32 -321 67 -335 82 -7 8 -2 9 15 4 14 -4 54 -11 89 -17 35 -5 66 -11
70 -13 3 -2 23 -7 43 -10 21 -3 59 -11 85 -17 27 -6 59 -12 73 -14 14 -2 34
-6 45 -10 25 -8 -21 33 -84 75 -82 55 -145 73 -271 76 -63 1 -143 -2 -177 -8z
m186 -37 c12 -11 18 -22 13 -25 -9 -6 -21 4 -36 32 -10 17 -3 15 23 -7z m66
-10 c3 -5 0 -13 -6 -17 -7 -4 -9 -3 -5 4 3 5 0 13 -6 15 -9 4 -10 6 -1 6 6 1
14 -3 18 -8z m-134 -41 c11 -6 68 -24 127 -40 59 -16 99 -29 90 -29 -9 -1 -24
-4 -34 -8 -12 -4 -15 -3 -10 5 4 7 1 12 -8 12 -9 0 -16 -7 -16 -15 0 -8 5 -15
10 -15 6 0 10 -4 10 -9 0 -6 -9 -9 -20 -8 -19 1 -22 20 -8 43 5 7 -1 10 -15 8
-12 -1 -25 -3 -29 -3 -15 -2 -8 -21 7 -21 8 0 15 -4 15 -10 0 -12 -5 -13 -28
-1 -9 5 -36 17 -60 27 -52 21 -86 49 -77 63 8 14 21 14 46 1z m359 -24 c0 -2
-9 -2 -20 1 -11 3 -20 9 -20 15 0 5 9 4 20 -2 11 -6 20 -12 20 -14z m-126 -86
c-10 -4 -23 -5 -28 -2 -5 3 -1 9 10 12 10 4 23 5 28 2 5 -3 1 -9 -10 -12z"/>
<path d="M1996 395 c10 -8 27 -15 37 -15 10 0 16 -4 13 -9 -9 -14 24 -22 42
-10 16 10 16 10 0 5 -10 -3 -20 -1 -23 5 -6 9 -70 39 -83 39 -3 0 3 -7 14 -15z"/>
<path d="M5557 486 c-37 -12 -99 -44 -137 -70 -72 -49 -100 -76 -64 -62 10 5
66 16 124 27 58 10 138 25 178 34 72 15 120 19 111 10 -11 -10 -222 -59 -348
-80 -75 -13 -124 -23 -110 -24 14 -1 52 -10 85 -22 116 -40 246 -24 367 43 60
34 186 128 187 139 0 11 -148 29 -238 29 -64 0 -105 -7 -155 -24z"/>
<path d="M2561 420 c0 -8 4 -22 9 -30 12 -18 12 -2 0 25 -6 13 -9 15 -9 5z"/>
<path d="M3100 402 c0 -4 4 -12 8 -17 5 -6 17 -30 26 -55 42 -108 127 -214
214 -268 33 -20 150 -62 173 -62 5 0 -21 27 -58 59 -64 56 -284 277 -235 236
14 -11 26 -15 30 -10 4 6 14 11 22 13 12 2 11 -1 -2 -11 -18 -14 -15 -28 5
-23 7 2 9 1 4 -1 -14 -9 3 -21 23 -16 20 5 28 23 10 23 -5 0 -10 4 -10 10 0 5
7 7 15 4 22 -9 18 -33 -6 -43 -20 -7 -14 -15 62 -80 46 -41 105 -94 132 -118
47 -45 55 -49 38 -15 -5 9 -25 51 -45 93 -58 124 -164 209 -328 265 -81 27
-78 27 -78 16z m100 -126 c0 -3 -4 -8 -10 -11 -5 -3 -10 -1 -10 4 0 6 5 11 10
11 6 0 10 -2 10 -4z m20 -52 c0 -8 -4 -12 -10 -9 -5 3 -10 13 -10 21 0 8 5 12
10 9 6 -3 10 -13 10 -21z m58 -17 c28 -29 30 -33 12 -34 -18 -2 -25 8 -21 30
0 4 -3 7 -8 7 -5 0 -11 7 -15 15 -8 21 -4 19 32 -18z m102 -132 c11 -13 10
-14 -4 -9 -9 3 -16 10 -16 15 0 13 6 11 20 -6z m70 -30 c7 -9 8 -15 2 -15 -5
0 -12 7 -16 15 -3 8 -4 15 -2 15 2 0 9 -7 16 -15z"/>
<path d="M4610 390 c-177 -63 -281 -151 -349 -292 -22 -48 -41 -90 -41 -94 0
-4 31 22 68 57 99 93 232 212 256 228 34 23 -184 -196 -241 -241 -29 -23 -50
-44 -48 -47 7 -6 131 38 174 62 90 52 157 132 215 261 20 43 36 80 36 82 0 7
-14 4 -70 -16z m-250 -324 c0 -2 -8 -10 -17 -17 -16 -13 -17 -12 -4 4 13 16
21 21 21 13z"/>
<path d="M2406 244 c-9 -8 -15 -25 -15 -37 1 -18 2 -19 6 -4 5 20 30 17 25 -2
-1 -7 2 -10 8 -6 5 3 18 1 28 -4 14 -8 23 -5 36 11 16 18 26 20 113 16 66 -3
88 -1 71 6 -13 5 -61 10 -108 11 -47 1 -95 7 -107 13 -29 16 -38 15 -57 -4z"/>
<path d="M5310 244 c-10 -12 -25 -14 -65 -9 -53 7 -162 -8 -178 -24 -5 -5 10
-5 34 1 24 5 78 7 119 4 105 -9 101 -8 90 -21 -22 -27 42 -49 68 -23 7 7 12
24 12 38 0 14 -5 31 -12 38 -17 17 -53 15 -68 -4z"/>
<path d="M2566 115 c-71 -18 -246 -94 -246 -106 0 -12 27 -11 52 2 11 6 18 7
15 2 -4 -6 31 -10 86 -10 51 0 79 2 62 4 -16 3 -33 10 -37 16 -6 9 -11 8 -17
-3 -6 -8 -13 -11 -17 -7 -11 11 2 19 38 23 21 3 28 1 19 -5 -9 -6 -6 -9 12 -9
25 0 25 1 7 20 -16 18 -23 19 -51 9 -18 -6 -34 -9 -37 -6 -5 5 36 22 76 31 21
4 24 3 12 -5 -13 -9 -12 -11 3 -11 10 0 15 -4 12 -10 -3 -6 0 -10 9 -10 8 0
16 -4 18 -9 2 -4 62 -2 133 7 72 8 149 15 172 16 54 1 43 11 -47 42 -91 32
-194 39 -274 19z m164 -22 c0 -5 -40 -9 -88 -9 -55 -1 -78 1 -62 6 32 10 150
12 150 3z m128 -28 c4 -3 -6 -3 -22 1 -19 4 -31 2 -37 -7 -4 -7 -11 -10 -16
-6 -4 5 -1 13 7 18 12 8 11 10 -5 8 -32 -2 -45 0 -45 10 0 10 106 -12 118 -24z
m-138 -5 c0 -5 -4 -10 -10 -10 -5 0 -10 5 -10 10 0 6 5 10 10 10 6 0 10 -4 10
-10z m-105 -10 c8 -13 -5 -13 -25 0 -13 8 -13 10 2 10 9 0 20 -4 23 -10z"/>
<path d="M5025 123 c-34 -7 -166 -55 -162 -59 6 -6 318 -44 372 -45 44 -1 46
-2 20 -9 -19 -5 14 -8 93 -9 67 0 122 2 122 7 0 11 -163 80 -243 102 -66 18
-152 24 -202 13z"/>
<path d="M4800 47 c0 -3 18 -14 40 -26 37 -19 56 -21 188 -19 81 1 122 3 92 5
-64 4 -277 31 -302 39 -10 3 -18 3 -18 1z"/>
<path d="M2855 28 c-33 -5 -105 -13 -160 -17 -100 -9 -100 -9 58 -9 134 0 163
3 194 19 l37 19 -34 -1 c-19 -1 -62 -6 -95 -11z"/>
</g>
  </g>
  <g mask="url(#bgpFadeMask)">
    <line x1="91.8" y1="500.6" x2="826.2" y2="500.6" stroke="#B8923A" stroke-width="2.75" fill="none"/>
    <text x="459.0" y="582.8" text-anchor="middle" font-family="Cormorant Garamond, &quot;Times New Roman&quot;, Times, serif" font-size="66.1" font-weight="600" letter-spacing="8.26" textLength="716.1" lengthAdjust="spacingAndGlyphs" fill="#B8923A">BENCH GRADE PEPTIDES</text>
    <line x1="91.8" y1="627.6" x2="826.2" y2="627.6" stroke="#B8923A" stroke-width="2.02" fill="none"/>
  </g>
</svg>
